<svg width="18" height="22" viewBox="0 0 18 22" fill="none" xmlns="http://www.w3.org/2000/svg">
<path fill-rule="evenodd" clip-rule="evenodd" d="M2.68934 2.43983C2.97064 2.15852 3.35218 2.00049 3.75 2.00049H8.25V7.25049C8.25 7.84723 8.48705 8.41952 8.90901 8.84148C9.33097 9.26343 9.90326 9.50049 10.5 9.50049H15.75V18.5005C15.75 18.8983 15.592 19.2798 15.3107 19.5611C15.0294 19.8425 14.6478 20.0005 14.25 20.0005H3.75C3.35218 20.0005 2.97064 19.8425 2.68934 19.5611C2.40804 19.2798 2.25 18.8983 2.25 18.5005V3.50049C2.25 3.10266 2.40804 2.72113 2.68934 2.43983ZM14.6893 8.00049L9.75 3.06115V7.25049C9.75 7.4494 9.82902 7.64017 9.96967 7.78082C10.1103 7.92147 10.3011 8.00049 10.5 8.00049H14.6893ZM3.75 0.500488C2.95435 0.500488 2.19129 0.816559 1.62868 1.37917C1.06607 1.94178 0.75 2.70484 0.75 3.50049V18.5005C0.75 19.2961 1.06607 20.0592 1.62868 20.6218C2.19129 21.1844 2.95435 21.5005 3.75 21.5005H14.25C15.0456 21.5005 15.8087 21.1844 16.3713 20.6218C16.9339 20.0592 17.25 19.2961 17.25 18.5005V9.37158V9.37147C17.2499 8.77494 17.0129 8.20286 16.5912 7.781L16.5911 7.78094L9.96955 1.15938L9.96949 1.15932C9.54763 0.737554 8.97555 0.500578 8.37902 0.500488H8.37891H3.75ZM5.25 11.7505C4.83579 11.7505 4.5 12.0863 4.5 12.5005C4.5 12.9147 4.83579 13.2505 5.25 13.2505H12.75C13.1642 13.2505 13.5 12.9147 13.5 12.5005C13.5 12.0863 13.1642 11.7505 12.75 11.7505H5.25ZM5.25 15.5005C4.83579 15.5005 4.5 15.8363 4.5 16.2505C4.5 16.6647 4.83579 17.0005 5.25 17.0005H12.75C13.1642 17.0005 13.5 16.6647 13.5 16.2505C13.5 15.8363 13.1642 15.5005 12.75 15.5005H5.25Z" fill="#ECC56B"/>
</svg>
