<svg width="92" height="229" viewBox="0 0 92 229" fill="none" xmlns="http://www.w3.org/2000/svg">
<path d="M84.8231 176.177C89.7045 175.046 94.5668 173.812 99.1172 171.679C104.769 169.005 109.758 165.503 112.482 159.507C113.304 157.688 113.752 155.721 113.799 153.723C113.984 148.768 113.399 143.871 113.106 138.941C113.065 136.656 113.392 134.379 114.073 132.2C115.524 126.711 120.507 123.845 126.165 125.13C129.834 125.976 133.447 127.049 136.984 128.344C143.463 130.683 148.835 127.701 151.323 121.011C154.378 112.772 153.182 104.777 150.279 96.9301C146.003 85.3621 137.691 78.0806 125.841 75.0794C117.109 72.8943 108.695 74.7966 100.416 77.65C93.8604 79.8865 88.8581 84.0767 86.1787 90.5034C84.5431 94.4429 83.8494 98.7618 83.2893 103.003C82.131 111.802 78.9807 119.925 75.6522 128.067C71.7509 137.656 65.4694 145.676 59.7416 154.076C57.6859 157.084 56.1394 160.336 56.7886 164.327C57.6032 169.346 61.0908 171.692 65.113 173.613C68.9469 175.561 73.2191 176.46 77.5042 176.222C79.8272 176.068 82.1692 176.222 84.5049 176.222" stroke="#ECC56B" stroke-linecap="round" stroke-linejoin="round"/>
<path d="M161.124 208.953C163.033 208.188 165.114 208.079 166.852 206.742C170.709 203.805 171.307 200.052 168.087 196.126C164.663 191.916 160.138 189.191 155.358 186.781C153.717 185.912 152.123 184.953 150.585 183.908C146.582 181.267 144.424 176.35 145.525 171.698C146.945 165.772 148.962 160.098 152.431 154.956C155.721 150.078 159.126 145.316 161.792 139.95C166.088 131.364 166.508 122.514 165.248 113.253C164.096 104.796 161.926 96.7432 157.923 89.1662C150.687 75.4774 139.174 67.5277 124.485 64.5907C112.189 62.1293 100.193 64.3658 88.9154 69.9442C82.2711 73.2282 77.9688 78.4914 75.4613 85.6186C73.0238 92.5466 72.1647 99.7573 70.4845 106.827C67.7479 118.395 63.9039 129.384 56.1522 138.6C52.7982 142.585 49.0943 146.312 46.0521 150.535C42.0999 156.01 39.8534 162.103 41.839 169.108C43.1119 173.696 46.1666 177.006 49.8261 179.654C57.2086 184.982 65.6858 187.173 74.5894 188.445C85.1541 189.956 95.0632 187.077 105.138 184.84C113.513 182.976 122.009 181.98 130.563 182.655C136.857 183.15 141.643 186.106 143.972 192.52C145.659 197.16 147.734 201.614 151.508 205.11C154.026 207.489 157.327 208.842 160.774 208.908" stroke="#ECC56B" stroke-linecap="round" stroke-linejoin="round"/>
<path d="M162.391 220.521C168.04 219.539 173.514 217.716 178.632 215.109C181.111 213.857 183.433 212.313 185.55 210.508C192.704 204.165 192.907 197.995 186.187 190.039C182.877 186.112 178.906 182.828 175.068 179.448C166.795 172.198 165.344 163.522 168.991 153.4C170.957 147.938 172.924 142.475 174.165 136.736C175.377 131.035 175.62 125.167 174.884 119.384C173.84 110.496 171.326 102.083 168.431 93.6771C163.759 80.1811 155.231 70.0205 143.005 62.8291C137.088 59.3293 130.771 56.5714 124.193 54.6159C117.684 52.6293 110.765 52.4515 104.164 54.1016C96.3171 56.0296 88.7437 58.6003 81.9849 62.9511C72.9413 68.793 69.1036 78.1631 66.7107 88.2402C64.5977 97.0447 63.0258 105.984 60.0473 114.59C57.2343 122.726 53.1103 130.014 47.007 136.1C43.3857 139.724 39.6499 143.24 36.4996 147.321C27.0359 159.57 28.8625 178.252 42.8638 186.793C53.4157 193.22 64.9669 196.504 77.1671 198.182C85.0524 199.268 92.5113 197.725 100.078 196.408C106.64 195.257 113.17 194.056 119.808 195.521C123.408 196.336 126.765 198.003 129.602 200.386C132.683 202.932 135.479 205.811 137.939 208.972C141.022 212.897 144.936 216.075 149.395 218.271C153.398 220.328 157.707 220.7 162.124 220.527" stroke="#ECC56B" stroke-width="2" stroke-linecap="round" stroke-linejoin="round"/>
<path d="M162.645 227.59C166.718 226.742 170.836 226.061 174.801 224.698C183.984 221.521 192.919 217.654 201.531 213.13C204.37 211.645 206.845 209.537 208.773 206.961C211.905 202.783 210.517 198.291 208.455 194.197C206.215 189.919 203.349 186.006 199.952 182.591C195.676 178.137 191.043 174.043 187.179 169.159C182.355 163.073 181.904 156.197 182.725 148.902C183.234 144.404 183.883 139.905 184.43 135.406C185.811 124.127 182.718 113.697 179.237 103.273C176.691 95.6636 174.26 88.0416 170.753 80.7794C166.044 70.998 159.107 63.4275 150.318 57.3864C144.074 53.0934 137.647 49.0767 131.562 44.533C129.788 43.1259 128.18 41.5172 126.77 39.7387C122.697 34.9509 122.856 29.3725 123.62 23.6721C125.103 12.586 122.474 5.49713 109.618 2.82363C104.487 1.6957 99.1761 1.6957 94.0451 2.82363C89.3483 3.89688 87.1462 6.89184 87.0444 11.789C87.0236 15.5111 87.646 19.2083 88.8837 22.7143C89.851 25.6577 90.7929 28.6397 91.6075 31.6473C93.014 36.8401 91.8303 41.0626 88.3236 44.8415C84.9187 48.4983 80.9792 51.5574 77.2052 54.8028C67.9643 62.7462 63.8021 73.4786 60.9636 84.963C58.6661 94.2689 56.5087 103.6 53.0911 112.598C49.6734 121.595 43.8757 128.388 36.8177 134.404C31.5927 138.864 26.2276 143.163 23.4528 149.828C21.9445 153.446 21.3526 157.186 20.8052 161.055C20.0733 166.158 21.0026 170.959 21.8936 175.837C23.5164 184.776 29.1806 190.521 36.8432 194.422C49.3919 200.766 62.6356 205.597 76.3015 208.818C84.1677 210.708 92.0276 209.12 99.8492 207.359C104.941 206.202 110.032 205.052 115.435 206.209C120.527 207.295 124.587 209.904 128.431 213.098C131.155 215.361 133.739 217.796 136.399 220.135C142.56 225.566 149.726 228.06 157.688 228.182" stroke="#ECC56B" stroke-linecap="round" stroke-linejoin="round" stroke-dasharray="3 3"/>
<path d="M85.8703 150.42C87.6387 153.076 89.3547 155.775 91.1983 158.367C92.7622 160.572 94.6207 162.178 97.6641 161.355C100.708 160.531 101.23 158.144 101.838 155.517C103.21 149.65 101.437 144.547 98.2988 139.828C96.6401 137.345 93.8546 135.773 91.0722 136.512C89.7396 136.881 88.5446 137.641 87.6359 138.697C86.7273 139.753 86.1449 141.059 85.9613 142.452C85.6172 144.95 85.83 147.542 85.7906 150.066" stroke="#ECC56B" stroke-linecap="round" stroke-linejoin="round"/>
</svg>
