<svg width="136" height="240" viewBox="0 0 136 240" fill="none" xmlns="http://www.w3.org/2000/svg">
<g clip-path="url(#clip0_111_2255)">
<path d="M0.502502 -0.330078C5.20139 2.97581 8.64563 7.33315 11.5173 12.2511C13.8439 16.2387 16.0853 20.3173 19.563 23.5141C22.9585 26.6291 26.6768 29.1471 31.327 29.8471C34.3841 30.2976 37.5018 30.114 40.4842 29.3077C44.5466 28.2411 48.1553 26.2776 51.77 24.2686C53.9017 23.0899 56.0334 22.0051 58.4697 21.4779C61.4266 20.8415 63.9512 21.696 66.4027 23.0657C69.3749 24.7322 71.5797 27.3079 73.3916 30.0562C77.4358 36.168 82.2564 41.6253 87.1502 47.0462C90.427 50.6824 93.4723 54.5125 96.8038 58.088C100.084 61.6151 104.399 62.9878 109.134 63.112C111.778 63.1817 114.427 63.2332 117.052 63.112C122.728 62.8302 128.015 64.4756 133.21 66.3694C136.115 67.4375 138.917 68.764 141.582 70.3328C143.274 71.3701 144.769 72.6965 145.997 74.2508C148.291 77.0658 147.785 81.1717 145.873 83.92C144.228 86.2835 141.966 88.0198 139.654 89.7258C136.773 91.8469 134.06 94.1528 132.138 97.2769C129.909 100.898 129.678 104.81 130.192 108.825C131.167 116.4 134.212 123.294 137.522 130.069C139.222 133.551 138.905 136.814 136.862 139.929C135.476 142.05 133.832 143.993 132.312 146.02C130.229 148.804 128.441 151.753 128.073 155.283C127.84 157.094 127.84 158.926 128.073 160.737C128.804 165.416 129.87 170.04 130.585 174.718C131.167 178.536 131.386 182.409 131.861 186.233C132.102 188.169 132.489 190.093 132.921 191.99C133.981 196.638 137.391 199.132 141.448 200.935C143.802 201.977 146.25 202.811 148.604 203.85C151.241 205.017 152.989 207.095 153.934 209.762C155.426 214.004 156.909 218.225 158.197 222.519C159.016 225.291 159.345 228.203 160.091 231.003C161.553 236.491 167.312 238.963 172.437 238.072C177.562 237.182 180.531 233.958 183.269 230.106C185.489 226.979 186.619 223.416 187.319 219.764C188.275 214.643 191.074 210.616 194.235 206.717C197.259 202.986 200.359 199.314 203.206 195.46C205.563 192.266 206.861 188.648 206.638 184.551C206.602 182.872 206.749 181.193 207.077 179.545C207.741 175.582 210.284 173.27 213.904 171.761C216.459 170.697 218.932 170.367 221.213 172C222.675 173.052 224.115 174.397 225.005 175.939C228.013 181.136 231.741 185.812 235.237 190.663C237.368 193.62 239.074 196.89 240.922 200.056C243.541 204.52 246.203 208.953 250.393 212.177C253.719 214.743 257.397 216.013 261.682 215.243C264.098 214.797 266.539 214.494 268.991 214.334C271.859 214.17 274.7 214.974 277.052 216.616C279.25 218.131 281.269 219.892 283.325 221.595C286.979 224.625 290.025 228.337 293.983 231.018C297.562 233.442 301.417 234.957 305.741 235.26C309.049 235.479 312.35 235.736 315.66 235.866C320.286 236.033 324.915 236.151 329.543 236.17C331.948 236.192 334.299 235.463 336.264 234.085C339.005 232.188 339.498 228.785 337.626 226.028C335.473 222.864 332.403 220.676 329.388 218.452C326.446 216.268 323.471 214.125 320.557 211.916C316.433 208.804 313.574 204.623 310.784 200.402C306.521 193.911 302.611 187.148 297.059 181.572C293.984 178.485 290.235 176.939 285.92 177.064C282.71 177.157 279.524 177.703 276.306 177.915C271.403 178.239 266.561 177.842 261.993 175.93C257.784 174.173 253.947 171.782 250.844 168.355C247.205 164.349 244.388 159.771 243.919 154.383C243.258 146.808 244.187 139.405 249.178 133.148C252.388 129.127 256.599 126.984 261.828 126.903C264.423 126.863 267.03 126.851 269.606 126.575C272.834 126.227 275.17 124.291 277.253 121.918C280.864 117.806 283.039 112.876 285.475 108.091C287.165 104.783 289.093 101.683 292.327 99.5707C294.455 98.1379 296.943 97.3274 299.511 97.2314C302.705 97.1405 305.906 97.6314 309.122 97.7465C311.914 97.8435 314.716 97.8435 317.511 97.7465C319.701 97.6647 321.881 97.3223 324.071 97.1708C327.579 96.9345 331.075 96.5648 334.599 96.5981C341.067 96.6557 347.13 98.3162 352.602 101.868C354.634 103.186 356.637 104.552 358.711 105.807C362.037 107.81 365.734 108.719 369.534 109.319C374.069 110.034 378.563 110.885 382.2 114.015C383.798 115.388 384.965 116.973 385.111 119.167C385.278 121.709 383.935 123.475 382.029 124.757C376.578 128.415 372.735 133.366 370.031 139.223C369.13 141.156 368.47 143.191 368.066 145.283C367.57 147.923 368.468 150.374 370 152.556C371.611 154.85 373.106 157.219 373.627 160.004C374.046 162.156 374.301 164.337 374.391 166.528C374.659 174.606 375.951 182.424 379.568 189.766C381.091 192.832 382.203 196.096 383.74 199.159C386.981 205.592 391.981 210.035 399.128 211.753C402.606 212.589 406.133 212.437 409.65 211.777C411.325 211.474 413 211.171 414.684 210.868" stroke="#ECC56B" stroke-width="2" stroke-linecap="round" stroke-linejoin="round"/>
<path d="M116.607 -0.47293C116.912 0.890634 117.067 2.3148 117.555 3.6117C118.514 6.18126 119.659 8.68416 120.725 11.2143C122.71 15.9201 124.705 20.6229 126.672 25.3348C129.054 31.0436 131.983 36.4281 137.242 40.0007C139.755 41.7066 142.645 42.9066 145.465 44.1308C149.539 45.9064 153.687 47.5397 157.822 49.1366C158.9 49.5122 160.031 49.7167 161.172 49.7426C163.085 49.8365 164.218 49.0123 164.827 47.1851C165.606 44.8216 165.679 42.3702 165.792 39.9128C165.902 37.5463 166.096 35.1888 167.08 32.9071C168.53 29.5043 171.264 28.3619 174.599 28.2498C178.46 28.1225 182.331 28.274 186.195 28.2074C191.172 28.1452 196.111 27.334 200.843 25.8014C204.845 24.4894 208.846 23.1531 212.903 22.0259C217.148 20.8441 221.125 21.4198 224.813 24.0955C228.568 26.8226 231.162 30.2982 232.426 34.7494C233.181 37.4251 232.846 40.1037 232.447 42.7975C231.924 46.3276 231.086 49.885 231.153 53.4181C231.269 59.7814 232.91 65.8417 236.382 71.3445C237.563 73.198 238.63 75.1206 239.579 77.1017C241.376 80.8955 240.533 84.4589 238.392 87.8739C237.268 89.6617 236.193 91.4858 235.191 93.3282C234.278 95.0038 234.482 97.0795 235.8 98.3037C237.365 99.7399 238.986 101.222 240.834 102.228C245.314 104.667 249.866 107.006 254.995 107.903C258.159 108.458 261.037 107.615 263.674 106.043C266.993 104.067 269.594 101.213 272.054 98.3067C276.161 93.533 279.606 88.2336 282.299 82.5499C283.955 78.9835 285.21 75.2776 285.344 71.3172C285.478 67.4235 285.49 63.5237 285.673 59.6299C285.847 55.9604 286.733 52.403 287.616 48.8457C288.117 46.9021 288.471 44.924 288.676 42.9278C289.017 39.2765 287.914 35.8918 286.422 32.6071C284.537 28.4558 282.335 24.4864 278.912 21.3956C276.855 19.6133 274.668 17.9857 272.368 16.5262C268.123 13.7263 265.123 9.85986 262.623 5.56614C261.475 3.58746 260.473 1.52696 259.404 -0.494141" stroke="#ECC56B" stroke-linecap="round" stroke-linejoin="round"/>
<path d="M120.877 -0.472656C121.964 4.27558 124.367 8.5208 126.084 13.0297C127.564 16.9113 128.929 20.8777 130.853 24.5442C134.922 32.2832 141.293 37.392 149.871 39.5798C151.15 39.904 152.542 40.1676 153.83 40.007C156.921 39.6222 158.063 37.3375 158.745 34.6012C159.372 32.0862 160.039 29.547 161.06 27.1774C162.198 24.5351 164.574 23.3867 167.412 23.0412C171.267 22.5716 174.967 23.4473 178.704 24.1139C186.899 25.5775 194.917 25.229 202.661 21.8504C206.501 20.1778 210.342 18.4809 214.27 17.0355C216.218 16.2982 218.277 15.8965 220.361 15.8477C223.001 15.8265 225.641 16.5992 227.651 18.3839C230.833 21.211 233.802 24.2563 235.63 28.2107C236.744 30.5955 237.365 33.1788 237.457 35.8072C237.594 39.7464 237.134 43.6098 236.592 47.5036C235.678 53.9972 237.055 60.0756 240.487 65.7299C242.555 69.1388 244.54 72.6204 246.273 76.2111C247.957 79.72 248.14 83.4835 247.098 87.2742C246.553 89.2741 245.895 91.3043 245.78 93.3345C245.633 95.904 246.763 98.0797 248.901 99.725C250.961 101.358 253.463 102.342 256.088 102.552C258.679 102.746 261.073 101.882 263.257 100.467C266.204 98.5615 268.494 95.9586 270.714 93.3163C274.411 88.9226 277.923 84.3774 280.484 79.2049C281.851 76.4384 282.862 73.5476 282.938 70.4175C283.033 66.6723 283.243 62.927 283.209 59.1848C283.182 56.0849 283.733 53.0881 284.293 50.0731C284.732 47.7096 285.338 45.3128 285.298 42.9402C285.239 40.0067 284.607 37.1127 283.438 34.4194C280.828 28.3107 276.5 23.7897 271.049 20.1475C268.58 18.496 266.034 16.8507 263.926 14.7932C261.722 12.6418 259.995 10.0025 258.07 7.56631C256.243 5.24522 254.416 2.90292 252.561 0.596984C252.257 0.215186 251.764 -0.0090446 251.343 -0.312059" stroke="#ECC56B" stroke-linecap="round" stroke-linejoin="round"/>
<path d="M9.04761 -0.33044C9.8607 0.933129 10.7834 2.14216 11.4838 3.47542C13.5577 7.54793 15.4762 11.7113 17.611 15.7596C20.504 21.2472 24.8984 25.0106 31.0103 26.5348C36.4309 27.8802 41.4282 26.4439 46.0905 23.7804C49.0445 22.0926 51.7 19.8776 54.6813 18.2443C58.8321 15.9687 63.1351 16.5687 67.1457 18.6928C71.3908 20.9412 74.6432 24.3773 77.2165 28.3892C80.8708 34.0677 85.116 39.2523 89.7266 44.1793C92.8206 47.4852 95.6496 51.0335 98.7741 54.3091C101.749 57.4271 105.589 58.7907 109.883 58.8846C113.699 58.9694 117.417 58.1271 121.181 57.7392C125.472 57.2938 129.708 57.6725 133.701 59.7694C138.377 62.2469 143.346 64.1341 148.492 65.3873C149.94 65.7159 151.422 65.8686 152.907 65.8418C155.231 65.8206 157.643 63.948 156.866 60.7087C156.09 57.4695 153.763 55.4545 151.229 53.5637C147.353 50.679 142.827 49.2851 138.238 48.3306C132.275 47.0913 128.648 43.5097 126.687 38.0796C124.726 32.6496 123.094 27.0257 121.127 21.5563C119.929 18.2979 118.556 15.1056 117.015 11.9931C115.188 8.25395 113.602 4.4784 113.221 0.290739C113.156 0.0252948 113.053 -0.229704 112.916 -0.466797" stroke="#ECC56B" stroke-linecap="round" stroke-linejoin="round"/>
<path d="M15.9117 -0.472656C17.1299 3.11806 18.4241 6.6906 19.5661 10.3116C20.568 13.5296 21.9597 16.4931 24.3137 18.9596C26.5121 21.2718 29.4026 22.8151 32.5543 23.3594C38.7149 24.5109 43.5173 21.8443 47.8081 17.89C49.0476 16.7476 50.1865 15.4901 51.4869 14.4175C54.2764 12.1146 57.5074 11.8903 60.9273 12.5721C66.5245 13.6811 71.1473 16.5113 75.4442 20.1475C79.3543 23.4412 81.9428 27.7592 85.0369 31.6984C87.4183 34.7285 89.8758 37.7041 92.3456 40.6585C94.3341 43.025 96.3227 45.3976 98.4605 47.6278C100.674 49.9398 103.095 52.1367 106.232 53.0821C110.675 54.4093 114.786 53.6093 118.27 50.3883C118.86 49.8455 119.335 49.1904 119.666 48.4617C119.997 47.733 120.178 46.9456 120.198 46.1461C120.253 43.3644 120 40.5767 119.781 37.798C119.607 35.5648 119.248 33.3468 119.044 31.1317C118.623 26.5199 117.67 22.0201 115.8 17.7991C113.851 13.3902 111.558 9.12077 110.362 4.42102C109.96 2.83929 109.829 1.18786 109.576 -0.427204" stroke="#ECC56B" stroke-linecap="round" stroke-linejoin="round"/>
<path d="M127.744 -0.330915C129.443 2.15683 130.238 5.00213 130.929 7.86865C131.621 10.7352 132.053 13.6653 132.802 16.5136C134.249 22.0164 137.233 26.3586 142.696 28.6615C146.555 30.2917 148.787 29.4705 150.782 26.6889C152.204 24.7162 153.465 22.5951 155.094 20.8074C157.11 18.5984 159.841 17.7075 162.826 17.2288C167.717 16.4409 172.312 17.5318 176.858 18.9771C180.817 20.2225 184.758 21.3831 188.924 21.5164C193.382 21.6558 197.637 20.4377 201.55 18.5681C207.579 15.6925 213.627 12.7835 219.13 8.9292C222.41 6.62932 224.274 3.51131 224.612 -0.482422" stroke="#ECC56B" stroke-linecap="round" stroke-linejoin="round"/>
<path d="M52.2239 -0.472656C52.5558 3.29078 54.8124 5.47248 58.1713 6.8209C65.0385 9.58136 71.7168 12.6994 77.7069 17.1234C82.9874 21.0262 87.2843 25.8047 91.1793 31.062C94.6874 35.7981 98.4606 40.3949 103.507 43.6705C104.513 44.3253 105.661 44.7353 106.856 44.8674C109.902 45.1522 111.997 43.2523 112.643 39.907C113.508 35.3049 113.804 30.6148 113.526 25.9411C113.346 22.5595 112.326 19.296 110.925 16.2446C108.556 11.0934 106.695 5.82398 106.22 0.133372C106.22 -0.0272253 105.934 -0.169642 105.781 -0.321149" stroke="#ECC56B" stroke-linecap="round" stroke-linejoin="round"/>
<path d="M59.2401 -0.472656C60.6227 2.27871 63.1533 3.78772 65.6565 5.28461C71.8903 9.01169 78.0783 12.8327 84.4399 16.3355C89.4162 19.117 94.0656 22.4413 98.3021 26.2471C98.6325 26.5326 98.9894 26.7863 99.3679 27.0047C100.543 27.6865 101.74 28.6288 103.165 27.8925C104.828 27.038 105.382 25.429 105.629 23.6715C106.095 20.3384 104.959 17.2658 104.274 14.0993C103.232 9.2844 102.072 4.48466 101.959 -0.472656" stroke="#ECC56B" stroke-linecap="round" stroke-linejoin="round"/>
<path d="M66.1073 -0.329564C67.837 0.994608 69.4876 2.42483 71.3147 3.60962C74.5093 5.67315 77.7921 7.60638 81.0597 9.5487C84.0593 11.3274 87.4274 11.9728 90.8229 12.4152C93.4479 12.7516 95.6954 10.9001 96.4993 8.35179C97.4129 5.43074 96.9074 2.47332 97.0749 -0.462891" stroke="#ECC56B" stroke-linecap="round" stroke-linejoin="round"/>
<path d="M88.8403 -0.472656C88.9043 2.10599 85.9016 3.76954 83.7973 3.19685C81.6443 2.61506 79.7989 1.53027 78.0113 0.29397C77.6207 0.0625819 77.2135 -0.139972 76.7932 -0.312059" stroke="#ECC56B" stroke-linecap="round" stroke-linejoin="round"/>
<path d="M143.305 95.3159C138.497 96.5462 135.476 99.6824 134.693 104.44C134.039 108.418 134.815 112.397 136.584 116.118C138.619 120.39 141.999 123.414 145.742 126.139C149.701 129.026 151.497 132.953 151.074 137.82C150.769 141.192 149.207 143.701 146.068 145.292C143.101 146.807 140.023 148.131 137.495 150.41C134.967 152.689 133.411 155.449 133.055 158.922C132.498 164.376 133.85 169.591 134.779 174.86C135.482 178.857 136.447 182.79 138.433 186.402C140.376 189.953 143.391 191.856 147.435 191.856C155.298 191.811 162.5 193.732 169.139 198.05C172.137 200.007 175.484 201.376 178.999 202.083C184.289 203.147 188.817 201.928 192.743 198.262C195.94 195.277 198.182 191.72 199.101 187.466C199.496 185.522 199.651 183.538 199.564 181.557C199.421 177.187 200.843 173.63 204.488 171.085C209.187 167.806 214.06 164.815 219.438 162.737C224.07 160.946 228.132 163.527 229.658 166.83C230.778 169.254 231.872 171.697 233.008 174.103C234.408 177.048 235.852 179.972 237.271 182.908C239.153 186.805 241.202 190.632 242.865 194.617C244.449 198.413 246.215 202.083 248.892 205.201C252.485 209.395 257.166 210.852 262.596 209.925C265.032 209.507 267.468 208.871 269.923 208.598C273.738 208.18 276.762 209.961 279.363 212.519C283.154 216.234 286.842 220.055 290.676 223.73C293.448 226.385 296.462 228.724 300.269 229.833C304.03 230.927 307.806 231.391 311.719 230.76C313.47 230.478 315.285 230.621 317.052 230.403C319.055 230.18 321.041 229.823 322.996 229.333C325.804 228.591 326.324 226.303 324.945 223.77C324.085 222.215 323.012 220.788 321.757 219.528C316.884 214.625 312.733 209.186 308.942 203.428C305.924 198.838 302.672 194.402 298.746 190.508C294.991 186.784 290.573 184.287 285.317 183.393C283.959 183.158 282.58 183.056 281.202 183.09C273.023 183.314 265.312 181.423 257.854 178.224C253.639 176.406 249.498 174.445 245.978 171.491C242.981 168.97 239.92 166.397 238.06 162.858C237.4 161.528 236.988 160.091 236.842 158.616C236.409 154.87 237.505 151.286 238.337 147.707C239.217 143.904 240.067 140.089 241.102 136.326C242.18 132.405 244.522 129.169 247.193 126.148C248.925 124.175 250.762 122.284 252.351 120.206C254.178 117.821 254.005 116.836 251.742 114.948C247.935 111.735 243.288 109.668 238.343 108.988C234.689 108.473 231.071 108.424 227.508 109.594C224.898 110.455 223.619 112.27 223.04 114.906C222.431 117.745 222.23 120.727 220.513 123.278C219.203 125.22 217.37 125.978 215.156 126.323C210.996 126.966 206.934 126.081 202.975 125.29C197.898 124.281 192.849 123.699 187.7 123.875C183.183 124.046 178.689 123.162 174.578 121.293C171.383 119.857 168.14 118.521 164.976 117.021C161.812 115.521 159.64 113.082 157.926 110.07C155.837 106.434 153.629 102.837 151.354 99.3006C150.712 98.2976 149.67 97.5461 148.793 96.7007C147.27 95.2371 145.373 95.2523 143.455 95.3311" stroke="#ECC56B" stroke-linecap="round" stroke-linejoin="round"/>
<path d="M28.574 0.578125C27.3559 0.881139 26.7803 1.7417 26.4423 2.85376C25.5287 5.80512 25.2546 8.7686 25.9764 11.8139C26.4879 13.9754 27.7479 15.8887 29.5353 17.2185C31.3227 18.5482 33.5234 19.2094 35.7517 19.0862C39.5614 18.9347 43.0026 16.0743 43.6695 12.4199C44.1141 9.96248 42.6707 8.25953 40.7673 7.14747C36.8146 4.85063 32.746 2.76286 28.7293 0.578125" stroke="#ECC56B" stroke-linecap="round" stroke-linejoin="round"/>
</g>
<defs>
<clipPath id="clip0_111_2255">
<rect width="402" height="240" fill="white"/>
</clipPath>
</defs>
</svg>
