<svg width="524" height="800" viewBox="0 0 524 800" fill="none" xmlns="http://www.w3.org/2000/svg">
<g clip-path="url(#clip0_24_1894)">
<path d="M1.67001 -1.10098C17.2862 9.91863 28.7327 24.4431 38.2765 40.8362C46.0087 54.1284 53.4575 67.7237 65.0153 78.3797C76.2999 88.7629 88.6573 97.1564 104.112 99.4896C114.272 100.991 124.633 100.379 134.544 97.6918C148.045 94.1364 160.038 87.5913 172.052 80.8947C179.136 76.9656 186.221 73.3496 194.317 71.5921C204.144 69.471 212.534 72.3194 220.681 76.8848C230.559 82.44 237.887 91.0254 243.908 100.187C257.349 120.559 273.37 138.75 289.634 156.82C300.523 168.941 310.644 181.707 321.716 193.626C332.616 205.383 346.957 209.959 362.695 210.373C371.48 210.605 380.285 210.777 389.009 210.373C407.873 209.433 425.443 214.918 442.709 221.231C452.362 224.791 461.673 229.213 470.531 234.442C476.154 237.9 481.122 242.321 485.206 247.502C492.826 256.885 491.146 270.571 484.791 279.733C479.325 287.611 471.806 293.399 464.124 299.085C454.55 306.155 445.532 313.842 439.146 324.255C431.738 336.326 430.969 349.365 432.679 362.748C435.918 388 446.039 410.978 457.04 433.563C462.687 445.168 461.634 456.046 454.844 466.43C450.239 473.5 444.773 479.975 439.723 486.732C432.801 496.014 426.86 505.842 425.635 517.609C424.861 523.645 424.861 529.754 425.635 535.79C428.064 551.385 431.606 566.798 433.985 582.393C435.918 595.12 436.647 608.028 438.225 620.775C439.025 627.229 440.31 633.643 441.747 639.966C445.269 655.46 456.605 663.773 470.085 669.783C477.909 673.257 486.046 676.035 493.869 679.499C502.633 683.388 508.443 690.317 511.58 699.205C516.539 713.346 521.468 727.416 525.749 741.728C528.471 750.97 529.565 760.677 532.044 770.01C536.902 788.302 556.04 796.544 573.073 793.574C590.106 790.605 599.974 779.858 609.073 767.02C616.45 756.596 620.205 744.718 622.533 732.547C625.711 715.477 635.012 702.054 645.517 689.054C655.567 676.621 665.87 664.379 675.333 651.531C683.166 640.885 687.477 628.825 686.739 615.169C686.619 609.571 687.108 603.976 688.196 598.483C690.402 585.272 698.853 577.565 710.886 572.535C719.378 568.99 727.596 567.889 735.176 573.333C740.034 576.838 744.821 581.323 747.776 586.464C757.776 603.786 770.163 619.371 781.782 635.542C788.866 645.4 794.534 656.298 800.677 666.853C809.381 681.731 818.226 696.508 832.152 707.255C843.204 715.81 855.43 720.043 869.67 717.477C877.699 715.99 885.81 714.978 893.959 714.447C903.493 713.899 912.932 716.579 920.749 722.053C928.056 727.103 934.766 732.971 941.597 738.648C953.742 748.748 963.863 761.121 977.02 770.06C988.912 778.141 1001.72 783.191 1016.1 784.201C1027.09 784.928 1038.06 785.787 1049.06 786.221C1064.43 786.776 1079.82 787.17 1095.2 787.231C1103.19 787.305 1111 784.875 1117.54 780.282C1126.64 773.959 1128.28 762.616 1122.06 753.425C1114.9 742.88 1104.7 735.587 1094.68 728.173C1084.91 720.891 1075.02 713.75 1065.33 706.387C1051.63 696.014 1042.13 682.075 1032.86 668.005C1018.69 646.37 1005.69 623.825 987.242 605.241C977.02 594.948 964.561 589.797 950.22 590.211C939.553 590.524 928.967 592.342 918.269 593.049C901.975 594.13 885.883 592.807 870.702 586.434C856.715 580.575 843.963 572.606 833.65 561.182C821.556 547.829 812.195 532.568 810.636 514.609C808.44 489.358 811.527 464.682 828.114 443.825C838.782 430.422 852.778 423.281 870.156 423.008C878.778 422.877 887.442 422.836 896.004 421.917C906.732 420.755 914.494 414.301 921.417 406.393C933.42 392.686 940.646 376.253 948.743 360.304C954.36 349.274 960.766 338.942 971.514 331.902C978.585 327.125 986.857 324.424 995.389 324.104C1006.01 323.801 1016.64 325.437 1027.33 325.821C1036.61 326.144 1045.92 326.144 1055.21 325.821C1062.49 325.548 1069.74 324.407 1077.01 323.902C1088.67 323.114 1100.29 321.882 1112 321.993C1133.5 322.185 1153.65 327.72 1171.83 339.558C1178.58 343.951 1185.24 348.507 1192.13 352.688C1203.19 359.365 1215.47 362.395 1228.1 364.395C1243.17 366.778 1258.11 369.617 1270.2 380.051C1275.51 384.626 1279.39 389.909 1279.87 397.221C1280.43 405.696 1275.96 411.584 1269.63 415.857C1251.51 428.048 1238.74 444.552 1229.75 464.076C1226.76 470.519 1224.57 477.303 1223.23 484.277C1221.58 493.075 1224.56 501.246 1229.65 508.518C1235.01 516.164 1239.98 524.063 1241.71 533.345C1243.1 540.52 1243.95 547.79 1244.25 555.092C1245.14 582.02 1249.43 608.079 1261.45 632.552C1266.51 642.774 1270.21 653.652 1275.32 663.864C1286.09 685.307 1302.7 700.114 1326.46 705.841C1338.01 708.629 1349.73 708.124 1361.42 705.922C1366.99 704.912 1372.56 703.902 1378.15 702.892" stroke="#ECC56B" stroke-width="2" stroke-linecap="round" stroke-linejoin="round"/>
<path d="M387.531 -1.57572C388.543 2.96949 389.059 7.71672 390.679 12.0397C393.867 20.6049 397.672 28.9479 401.214 37.3818C407.813 53.0678 414.442 68.7438 420.98 84.45C428.894 103.479 438.63 121.428 456.109 133.336C464.458 139.023 474.063 143.023 483.435 147.103C496.976 153.022 510.76 158.466 524.504 163.789C528.086 165.041 531.843 165.723 535.637 165.809C541.993 166.122 545.758 163.375 547.782 157.285C550.373 149.406 550.616 141.235 550.99 133.043C551.354 125.155 552.002 117.297 555.271 109.691C560.089 98.3483 569.177 94.5404 580.259 94.1667C593.092 93.7425 605.956 94.2475 618.799 94.0253C635.338 93.818 651.751 91.1141 667.479 86.0055C680.778 81.632 694.076 77.1777 707.557 73.4203C721.665 69.4811 734.883 71.4002 747.139 80.3189C759.618 89.4094 768.241 100.995 772.441 115.832C774.951 124.751 773.837 133.68 772.511 142.659C770.771 154.426 767.988 166.284 768.21 178.061C768.595 199.272 774.05 219.473 785.587 237.816C789.512 243.994 793.061 250.403 796.214 257.007C802.185 269.652 799.382 281.53 792.267 292.914C788.533 298.873 784.96 304.953 781.63 311.095C778.594 316.68 779.272 323.599 783.654 327.68C788.856 332.467 794.241 337.406 800.384 340.76C815.271 348.891 830.402 356.688 847.445 359.678C857.96 361.526 867.524 358.718 876.289 353.476C887.32 346.891 895.964 337.376 904.141 327.69C917.788 311.777 929.238 294.113 938.187 275.167C943.693 263.279 947.862 250.926 948.308 237.725C948.753 224.746 948.793 211.746 949.401 198.767C949.978 186.536 952.923 174.678 955.858 162.82C957.524 156.341 958.701 149.747 959.38 143.093C960.513 130.922 956.849 119.64 951.89 108.691C945.626 94.8535 938.308 81.6219 926.933 71.3194C920.096 65.3785 912.826 59.953 905.183 55.0879C891.075 45.7551 881.106 32.8669 872.797 18.5545C868.982 11.9589 865.652 5.09059 862.1 -1.64642" stroke="#ECC56B" stroke-linecap="round" stroke-linejoin="round"/>
<path d="M401.72 -1.5759C405.333 14.2515 413.319 28.4023 419.027 43.4318C423.945 56.3705 428.479 69.592 434.876 81.8136C448.397 107.61 469.569 124.64 498.079 131.932C502.33 133.013 506.955 133.892 511.236 133.356C521.509 132.074 525.304 124.458 527.571 115.337C529.656 106.954 531.872 98.4895 535.263 90.5909C539.048 81.7833 546.942 77.9552 556.374 76.8038C569.187 75.2382 581.484 78.1572 593.902 80.3793C621.137 85.2579 647.784 84.0963 673.521 72.8343C686.283 67.2588 699.046 61.6026 712.101 56.7846C718.574 54.3271 725.419 52.9881 732.343 52.8253C741.117 52.7545 749.892 55.3302 756.571 61.2793C767.148 70.7031 777.015 80.8541 783.088 94.0352C786.791 101.985 788.856 110.596 789.16 119.357C789.615 132.488 788.087 145.366 786.286 158.345C783.249 179.99 787.824 200.252 799.23 219.099C806.102 230.462 812.701 242.068 818.459 254.037C824.056 265.733 824.663 278.278 821.202 290.914C819.39 297.58 817.204 304.347 816.82 311.115C816.334 319.68 820.089 326.932 827.194 332.416C834.039 337.859 842.355 341.14 851.078 341.84C859.691 342.487 867.646 339.608 874.902 334.891C884.699 328.538 892.31 319.862 899.688 311.054C911.974 296.408 923.643 281.258 932.155 264.016C936.699 254.794 940.059 245.158 940.312 234.725C940.626 222.24 941.324 209.756 941.213 197.282C941.122 186.949 942.954 176.96 944.816 166.91C946.273 159.032 948.287 151.042 948.156 143.134C947.96 133.355 945.86 123.709 941.972 114.731C933.299 94.3685 918.917 79.2986 900.801 67.1578C892.593 61.6531 884.132 56.1685 877.129 49.3103C869.802 42.139 864.063 33.3414 857.667 25.2207C851.594 17.4837 845.522 9.67603 839.359 1.98957C838.347 0.71691 836.707 -0.0305249 835.31 -1.04057" stroke="#ECC56B" stroke-linecap="round" stroke-linejoin="round"/>
<path d="M30.0687 -1.10117C32.7709 3.11072 35.8375 7.14081 38.1652 11.585C45.0574 25.1601 51.4334 39.0381 58.528 52.5323C68.1427 70.8243 82.7468 83.3691 103.059 88.4496C121.074 92.9342 137.682 88.1466 153.177 79.2683C162.994 73.6423 171.819 66.2589 181.727 60.8147C195.521 53.2293 209.822 55.2292 223.151 62.3096C237.259 69.8042 248.068 81.2581 256.62 94.6311C268.765 113.559 282.873 130.841 298.196 147.265C308.478 158.284 317.88 170.112 328.264 181.031C338.152 191.424 350.914 195.969 365.184 196.282C377.866 196.565 390.223 193.757 402.732 192.464C416.992 190.98 431.07 192.242 444.338 199.232C459.879 207.49 476.392 213.781 493.494 217.958C498.307 219.053 503.234 219.562 508.169 219.473C515.892 219.402 523.907 213.16 521.326 202.363C518.746 191.565 511.013 184.849 502.593 178.546C489.709 168.93 474.67 164.284 459.418 161.102C439.602 156.971 427.548 145.032 421.03 126.932C414.513 108.832 409.088 90.0859 402.55 71.8546C398.569 60.9931 394.008 50.3522 388.887 39.9775C382.815 27.5135 377.542 14.9283 376.277 0.969424C376.059 0.084611 375.719 -0.765385 375.265 -1.55569" stroke="#ECC56B" stroke-linecap="round" stroke-linejoin="round"/>
<path d="M52.8807 -1.5759C56.929 10.3932 61.2303 22.3016 65.0255 34.3717C68.3553 45.0984 72.9804 54.9767 80.8036 63.1984C88.1096 70.9057 97.7159 76.0499 108.19 77.8643C128.664 81.7025 144.625 72.8141 158.885 59.633C163.004 55.8251 166.789 51.6334 171.11 48.0578C180.381 40.3815 191.119 39.634 202.485 41.9066C221.086 45.6034 236.45 55.0373 250.73 67.1578C263.725 78.137 272.327 92.5302 282.61 105.661C290.524 115.761 298.692 125.68 306.9 135.528C313.508 143.416 320.117 151.325 327.222 158.759C334.58 166.466 342.626 173.789 353.05 176.94C367.816 181.364 381.479 178.697 393.057 167.961C395.019 166.151 396.596 163.968 397.697 161.539C398.797 159.11 399.398 156.485 399.463 153.82C399.645 144.548 398.805 135.255 398.077 125.993C397.5 118.549 396.306 111.156 395.628 103.772C394.231 88.3991 391.063 73.3999 384.849 59.33C378.372 44.6338 370.751 30.4022 366.773 14.7364C365.438 9.46392 365.002 3.95916 364.162 -1.42439" stroke="#ECC56B" stroke-linecap="round" stroke-linejoin="round"/>
<path d="M424.542 -1.10096C430.19 7.19153 432.831 16.6759 435.129 26.2309C437.426 35.786 438.863 45.5531 441.353 55.0476C446.16 73.39 456.078 87.864 474.235 95.5404C487.058 100.974 494.476 98.2372 501.105 88.965C505.832 82.3896 510.022 75.3192 515.436 69.3599C522.136 61.9967 531.214 59.0272 541.132 57.4313C557.386 54.8052 572.658 58.4413 587.769 63.2593C600.925 67.4106 614.022 71.279 627.867 71.7235C642.683 72.1881 656.822 68.1277 669.827 61.8957C689.866 52.3103 709.966 42.6139 728.254 29.7661C739.154 22.0998 745.347 11.7064 746.471 -1.60599" stroke="#ECC56B" stroke-linecap="round" stroke-linejoin="round"/>
<path d="M173.56 -1.5759C174.663 10.9689 182.163 18.2412 193.326 22.7359C216.148 31.9375 238.342 42.3309 258.25 57.0776C275.799 70.087 290.079 86.0154 303.024 103.54C314.683 119.327 327.222 134.649 343.992 145.568C347.338 147.751 351.152 149.117 355.125 149.557C365.246 150.507 372.209 144.174 374.354 133.023C377.23 117.683 378.216 102.049 377.289 86.4699C376.692 75.1978 373.302 64.3196 368.646 54.1484C360.772 36.9776 354.588 19.4129 353.01 0.444197C353.01 -0.0911276 352.058 -0.56585 351.552 -1.07087" stroke="#ECC56B" stroke-linecap="round" stroke-linejoin="round"/>
<path d="M459.023 -1.10086C460.875 4.79781 463.223 10.6056 464.478 16.6356C466.29 25.3119 466.867 34.2407 468.769 42.8968C470.915 52.7347 475.854 57.0375 487.452 53.169C498.877 49.216 510.555 46.0372 522.409 43.6543C537.742 40.7858 553.459 40.6242 568.964 41.6342C581.19 42.412 592.333 47.7551 603.445 52.6135C612.999 56.7849 622.998 59.6838 633.362 59.5121C644.228 59.2233 654.914 56.6742 664.736 52.0276C680.251 44.9573 695.189 36.7759 708.376 25.7664C717.192 18.4234 724.215 9.83795 727.14 -1.50488" stroke="#ECC56B" stroke-linecap="round" stroke-linejoin="round"/>
<path d="M196.878 -1.5759C201.472 7.59533 209.883 12.6254 218.202 17.615C238.919 30.0386 259.484 42.7753 280.626 54.4514C297.164 63.7228 312.616 74.804 326.695 87.4901C327.793 88.4417 328.98 89.2872 330.238 90.0152C334.144 92.2878 338.122 95.4291 342.858 92.9746C348.384 90.1263 350.226 84.763 351.046 78.9047C352.594 67.7942 348.819 57.5523 346.542 46.9973C343.081 30.9476 339.225 14.9485 338.85 -1.5759" stroke="#ECC56B" stroke-linecap="round" stroke-linejoin="round"/>
<path d="M483.859 -1.5759C486.896 5.16112 489.831 11.8678 495.427 17.2413C502.39 23.9278 510.79 26.6246 519.869 27.1498C538.157 28.2104 556.161 25.9378 574.156 22.4228C585.764 20.1098 597.302 21.1199 607.18 29.6649C612.326 34.1924 618.126 37.9209 624.385 40.7249C633.413 44.6237 643.169 44.6843 652.723 41.9066C673.369 35.8464 691.789 26.2004 705.441 9.0195C708.002 5.80755 710.198 2.30268 712.526 -1.08097" stroke="#ECC56B" stroke-linecap="round" stroke-linejoin="round"/>
<path d="M219.7 -1.1009C225.448 3.31301 230.934 8.08043 237.006 12.0297C247.623 18.9081 258.533 25.3522 269.392 31.8266C279.361 37.7556 290.555 39.907 301.839 41.3817C310.563 42.5029 318.032 36.3315 320.704 27.837C323.74 18.1001 322.06 8.24204 322.617 -1.54532" stroke="#ECC56B" stroke-linecap="round" stroke-linejoin="round"/>
<path d="M504.647 -1.10098C513.695 8.64597 525.01 12.969 538.106 11.9589C548.875 11.1307 558.924 7.81774 567.537 0.929213C568.478 0.171677 569.561 -0.434351 570.573 -1.09088" stroke="#ECC56B" stroke-linecap="round" stroke-linejoin="round"/>
<path d="M295.251 -1.5759C295.463 7.01961 285.484 12.5648 278.491 10.6558C271.335 8.71649 265.202 5.10052 259.261 0.979522C257.963 0.20823 256.61 -0.466948 255.213 -1.04057" stroke="#ECC56B" stroke-linecap="round" stroke-linejoin="round"/>
<path d="M476.259 317.72C460.278 321.821 450.239 332.275 447.638 348.133C445.462 361.395 448.043 374.657 453.923 387.06C460.683 401.302 471.917 411.382 484.356 420.462C497.512 430.088 503.484 443.178 502.077 459.4C501.065 470.642 495.873 479.005 485.438 484.308C475.581 489.358 465.349 493.772 456.949 501.367C448.549 508.963 443.377 518.164 442.193 529.74C440.341 547.92 444.834 565.303 447.921 582.868C450.259 596.19 453.467 609.301 460.066 621.341C466.523 633.178 476.542 639.522 489.983 639.522C516.114 639.37 540.05 645.774 562.113 660.167C572.079 666.69 583.202 671.253 594.883 673.611C612.463 677.156 627.512 673.096 640.558 660.874C651.185 650.925 658.633 639.067 661.69 624.886C663.002 618.407 663.518 611.793 663.228 605.19C662.753 590.625 667.479 578.767 679.593 570.283C695.21 559.354 711.403 549.385 729.276 542.456C744.669 536.487 758.17 545.092 763.241 556.102C766.965 564.182 770.598 572.323 774.373 580.343C779.029 590.161 783.826 599.907 788.542 609.695C794.797 622.684 801.608 635.441 807.134 648.723C812.397 661.379 818.267 673.611 827.163 684.004C839.105 697.983 854.661 702.841 872.706 699.751C880.803 698.357 888.899 696.236 897.056 695.327C909.738 693.933 919.787 699.872 928.43 708.397C941.031 720.78 953.287 733.517 966.029 745.768C975.238 754.616 985.258 762.414 997.909 766.111C1010.41 769.757 1022.96 771.302 1035.96 769.202C1041.78 768.262 1047.81 768.737 1053.68 768.01C1060.34 767.269 1066.94 766.078 1073.44 764.444C1082.77 761.97 1084.5 754.344 1079.92 745.9C1077.06 740.719 1073.49 735.96 1069.32 731.759C1053.13 715.417 1039.33 697.286 1026.73 678.095C1016.7 662.793 1005.89 648.006 992.848 635.027C980.37 622.613 965.685 614.291 948.216 611.311C943.703 610.526 939.123 610.188 934.543 610.301C907.359 611.048 881.734 604.746 856.948 594.08C842.941 588.019 829.177 581.484 817.478 571.636C807.519 563.233 797.347 554.657 791.164 542.86C788.972 538.428 787.601 533.638 787.115 528.719C785.678 516.235 789.322 504.286 792.085 492.358C795.01 479.682 797.833 466.965 801.274 454.42C804.857 441.35 812.64 430.563 821.516 420.493C827.274 413.917 833.377 407.615 838.66 400.686C844.732 392.737 844.156 389.454 836.636 383.161C823.985 372.452 808.538 365.56 792.105 363.294C779.96 361.577 767.937 361.415 756.096 365.314C747.422 368.182 743.171 374.233 741.249 383.02C739.224 392.484 738.557 402.423 732.848 410.928C728.497 417.402 722.404 419.927 715.046 421.079C701.221 423.22 687.72 420.271 674.563 417.634C657.692 414.271 640.912 412.332 623.798 412.917C608.788 413.488 593.852 410.541 580.188 404.312C569.572 399.524 558.793 395.07 548.278 390.07C537.762 385.07 530.546 376.94 524.848 366.9C517.906 354.779 510.568 342.79 503.008 331.003C500.872 327.659 497.411 325.154 494.496 322.336C489.436 317.458 483.131 317.508 476.755 317.771" stroke="#ECC56B" stroke-linecap="round" stroke-linejoin="round"/>
<path d="M489.436 548.466C480.105 550.294 477.413 558.799 479.994 568.667C483.354 581.515 491.41 587.555 504.648 587.918C506.514 588.032 508.38 587.669 510.066 586.863C511.753 586.057 513.206 584.834 514.287 583.311C515.369 581.788 516.043 580.015 516.245 578.159C516.448 576.304 516.173 574.427 515.446 572.707C510.659 560.445 503.97 550.779 489.952 548.466" stroke="#ECC56B" stroke-linecap="round" stroke-linejoin="round"/>
<path d="M94.9625 1.92917C90.9142 2.93922 89.0014 5.80775 87.878 9.51462C84.8418 19.3525 83.9309 29.2307 86.3295 39.3817C88.0297 46.5868 92.2169 52.9646 98.1571 57.397C104.097 61.8294 111.411 64.0335 118.817 63.6229C131.478 63.1178 142.914 53.583 145.131 41.4018C146.608 33.2103 141.811 27.5339 135.486 23.827C122.349 16.1708 108.828 9.21161 95.4786 1.92917" stroke="#ECC56B" stroke-linecap="round" stroke-linejoin="round"/>
<path d="M480.317 518.063C464.256 523.235 459.924 529.042 458.497 546.91C457.176 563.36 460.485 579.851 468.051 594.524C474.478 607.362 484.993 614.139 498.585 616.129C523.543 619.75 548.138 625.533 572.092 633.411C581.625 636.562 591.392 639.138 601.492 638.4C613.344 637.532 623.252 632.906 626.794 620.219C629.678 609.897 623.393 597.453 611.613 594.918C600.43 592.504 589.074 590.595 578.215 587.171C564.258 582.777 552.721 574.252 543.157 563.081C532.965 551.193 523.786 538.406 511.287 528.588C502.249 521.518 492.493 517.174 480.813 518.023" stroke="#ECC56B" stroke-linecap="round" stroke-linejoin="round"/>
</g>
<defs>
<clipPath id="clip0_24_1894">
<rect width="1336" height="800" fill="white"/>
</clipPath>
</defs>
</svg>
