<svg width="412" height="739" viewBox="0 0 412 739" fill="none" xmlns="http://www.w3.org/2000/svg">
<g clip-path="url(#clip0_24_1934)">
<path d="M-35.5143 679.243C-34.4536 671.564 -33.096 663.913 -32.396 656.212C-31.2363 643.456 -20.5802 636.548 -10.7019 634.702C0.944127 632.517 12.2719 634.356 23.6917 637.644C36.7316 641.428 49.9698 644.492 63.3463 646.822C75.3035 648.88 86.9495 646.101 97.6693 640.246C103.673 636.958 107.3 630.148 104.422 623.593C99.9485 613.359 95.5786 603.087 91.3124 592.778C86.9919 582.277 82.9331 571.77 81.9573 560.201C80.6704 544.914 87.7132 537.065 101.24 533.395C105.978 532.108 111.111 532.165 116.082 531.889C126.357 531.302 136.595 532.292 146.962 530.241C170.332 525.638 181.843 500.762 172.361 481.918C166.336 469.925 159.76 458.215 153.276 446.47C142.33 426.643 132.049 406.632 128.817 383.757C124.702 354.681 125.133 326.022 135.217 298.02C142.825 276.892 153.481 257.227 163.911 237.435C172.375 221.377 180.415 205.205 182.805 186.806C184.121 177.444 182.443 167.906 178.011 159.555C171.71 147.597 164.901 135.895 158.282 124.128C155.737 119.603 152.703 115.325 150.596 110.602C148.143 105.107 144.154 100.978 139.763 97.3079C137.119 95.161 133.977 93.712 130.627 93.0936C125.127 92.1788 119.548 91.8116 113.975 91.9976C99.1471 92.4572 85.1959 88.8863 71.8457 82.9891C51.7992 74.1431 30.9325 69.8227 9.12532 71.4774C-9.35845 72.8774 -21.5843 86.0225 -22.15 103.955C-22.8147 125.012 -14.3718 142.846 -4.00564 160.283C0.682482 168.195 5.85851 175.974 9.30212 184.424C15.4822 199.584 14.1953 215.168 9.92438 230.781C5.33525 247.603 -1.8348 263.301 -9.25235 278.95C-12.1798 285.116 -14.8385 291.409 -17.377 297.695C-23.0056 311.498 -19.3216 323.823 -11.4444 335.603C-3.00156 348.204 7.1737 359.595 13.8347 373.44C19.8026 385.857 17.448 396.343 8.38288 405.663C-10.7585 425.384 -22.4116 448.676 -26.2724 475.858C-28.6108 492.389 -33.6262 508.428 -41.1217 523.347C-46.9977 535.092 -52.4495 547.077 -54.5779 560.18C-56.968 574.916 -54.1395 589.2 -50.413 603.405C-48.3553 611.247 -46.4674 619.16 -45.1522 627.136C-43.738 635.621 -45.93 643.329 -52.4707 649.516C-54.6486 651.581 -56.2891 654.183 -58.17 656.545" stroke="#ECC56B" stroke-linecap="round" stroke-linejoin="round" stroke-dasharray="3 3"/>
<path d="M135.945 121.647C126.357 114.887 115.262 112.193 104.04 110.432C87.7344 107.872 72.8427 100.985 57.2722 96.191C44.3322 92.1605 31.279 91.0716 17.9642 94.3879C1.85631 98.4608 -2.02572 111.394 -0.477156 123.436C0.894632 134.156 5.01707 143.864 10.2002 153.177C16.3237 164.179 22.3695 175.246 25.311 187.563C28.9243 202.49 26.7252 217.262 21.733 231.432C15.4681 249.209 8.33336 266.639 1.67948 284.267C-3.10763 296.946 -6.72799 309.985 -0.993353 323.144C2.04524 330.069 6.09647 336.503 11.0275 342.236C20.4178 353.125 31.1305 362.678 44.1554 369.325C52.537 373.606 60.7984 378.096 68.9395 382.796C76.944 387.42 81.6816 397.928 76.2934 405.706C74.3288 408.679 71.7269 411.177 68.6765 413.019C65.6261 414.861 62.2039 416 58.6582 416.355C52.0822 417.137 45.4523 417.367 38.838 417.041C14.2448 415.273 -4.98144 432.915 -11.6 454.411C-15.3618 466.658 -17.2073 479.549 -19.1519 492.27C-21.2385 505.02 -25.0742 517.422 -30.5504 529.124C-35.1325 539.278 -39.3327 549.546 -39.8842 560.986C-40.3792 571.381 -37.6002 580.382 -31.8161 589.08C-26.6825 596.787 -19.2084 600.825 -11.4161 604.035C5.85852 611.156 23.4231 617.562 41.0088 623.933C49.1193 626.882 57.5905 628.338 66.1111 625.701C73.2246 623.523 75.3459 620.101 75.7065 612.669C76.2015 602.925 72.9276 594.037 70.0143 585.028C67.8152 578.205 65.0221 571.466 63.8342 564.451C62.6463 557.437 61.8826 550.069 63.2049 543.288C65.3545 532.257 73.5357 525.164 83.8807 521.834C91.9276 519.246 100.547 518.277 108.983 517.096C116.719 516.007 124.751 516.446 132.31 514.728C151.36 510.4 159.279 496.866 152.534 476.275C147.923 462.204 140.64 449.419 133.435 436.585C126.371 424.006 119.349 411.398 112.603 398.642C110.925 395.598 109.958 392.213 109.775 388.742C109.259 358.089 110.114 327.549 121.442 298.431C128.478 280.35 138.066 263.535 147.57 246.663C155.652 232.316 163.204 217.75 167.991 201.762C173.719 182.571 169.412 165.622 159.343 149.274C153.029 138.985 144.961 130.266 136.306 121.993" stroke="#ECC56B" stroke-width="2" stroke-linecap="round" stroke-linejoin="round"/>
<path d="M137.359 141.488C134.997 139.833 132.678 138.122 130.26 136.538C121.414 130.733 111.38 128.152 101.268 125.932C89.106 123.216 76.8802 120.735 64.7745 117.722C56.2114 115.566 47.8322 113.762 38.8802 115.233C28.9242 116.874 22.0723 126.045 24.4553 135.499C26.4483 143.541 28.923 151.456 31.8658 159.201C38.4136 176.143 43.9148 193.425 40.0187 211.605C37.367 223.689 32.5092 235.335 28.1746 247.024C22.2915 262.934 14.8033 278.243 11.8334 295.199C9.96665 305.862 11.6001 315.924 17.4408 324.494C25.8765 336.848 38.2863 344.336 53.0577 346.747C59.9662 347.871 67.2282 347.313 74.278 346.825C80.0834 346.422 84.4179 342.639 86.9352 337.675C91.4395 328.772 95.4276 319.594 99.4157 310.444C107.554 291.713 117.822 274.134 128.845 256.973C138.858 241.303 148.765 225.641 154.867 207.801C161.57 188.171 159.117 170.147 147.577 153.247C144.762 149.132 141.043 145.639 137.741 141.87" stroke="#ECC56B" stroke-linecap="round" stroke-linejoin="round"/>
<path d="M128.853 154.237C121.159 149.203 113.254 144.38 103.701 144.034C93.7872 143.709 83.8029 143.298 73.9317 144.105C61.8826 145.123 56.5368 153.014 57.3146 166.958C57.6328 172.764 58.4531 178.548 59.04 184.325C61.0128 203.268 58.1844 221.299 49.6425 238.567C43.4978 250.963 38.3076 263.874 33.3296 276.8C30.1335 285.087 29.0162 293.841 32.1275 302.624C36.4479 314.765 47.8253 317.515 57.9723 313.548C66.698 310.154 71.6901 302.263 78.0824 296.125C81.2078 293.127 83.1806 288.977 85.9807 285.639C94.3741 275.648 103.234 265.996 111.38 255.799C121.173 243.559 131.151 231.361 137.663 216.887C143.921 202.964 147.435 188.801 141.962 173.654C139.257 166.368 134.875 159.821 129.171 154.541" stroke="#ECC56B" stroke-linecap="round" stroke-linejoin="round"/>
<path d="M118.232 169.115C115.163 167.701 112.221 165.636 108.997 164.985C96.0284 162.397 83.8945 167.602 82.9328 184.714C82.1904 197.972 84.347 211.103 87.4441 224.043C89.1907 231.446 96.8699 232.705 103 229.7C119.533 221.653 131.08 201.409 127.332 183.321C126.074 177.837 122.977 172.949 118.557 169.468" stroke="#ECC56B" stroke-linecap="round" stroke-linejoin="round"/>
<path d="M113.296 437.674C104.663 432.166 95.76 432.088 85.9666 435.008C73.2952 438.77 60.235 438.975 47.0333 436.72C39.0006 435.334 30.982 434.004 22.5603 436.076C10.6597 439.011 3.47549 446.237 -1.20556 457.127C-5.66033 467.493 -6.74219 478.46 -7.02503 489.392C-7.45637 504.955 -10.4545 519.904 -14.782 534.781C-16.9278 541.763 -17.975 549.037 -17.8861 556.341C-17.5184 567.174 -9.00491 572.647 -0.328709 576.727C6.51609 579.965 13.9195 582.122 21.2593 584.173C24.4625 585.071 28.1041 584.894 31.5194 584.533C35.6631 584.123 37.3389 581.542 37.4803 575.744C37.6712 569.132 37.5722 562.514 37.5227 555.902C37.4096 541.562 42.9604 529.492 53.2134 519.875C61.0897 512.546 70.9082 507.636 81.4977 505.733C91.1073 503.93 100.901 503.117 110.51 501.285C115.859 500.202 121.076 498.55 126.074 496.357C133.93 492.998 135.761 486.019 134.898 478.382C133.06 462.26 125.36 449.044 113.714 437.992" stroke="#ECC56B" stroke-linecap="round" stroke-linejoin="round"/>
<path d="M80.7059 470.264C66.3021 465.534 52.0822 460.11 37.4381 456.285C22.3201 452.339 11.466 460.973 10.6033 477.35C10.0854 483.695 11.2769 490.063 14.054 495.791C18.4875 504.566 25.0495 505.57 32.0782 502.289C42.2534 497.545 51.7357 491.315 61.5928 485.884C67.285 482.752 73.2318 480.086 78.8957 476.925C81.1584 475.667 83.902 473.927 81.0665 470.611" stroke="#ECC56B" stroke-linecap="round" stroke-linejoin="round"/>
<path d="M164.986 560.216C154.556 554.778 143.079 553.71 131.688 552.501C127.463 551.946 123.184 551.946 118.96 552.501C107.066 554.396 102.251 560.499 104.196 572.215C106.14 583.932 110.715 594.8 119.766 602.579C136.008 616.516 150.172 613.185 161.754 597.36C167.327 589.662 170.215 580.344 169.971 570.844C169.914 566.785 168.655 563.207 165.36 560.576" stroke="#ECC56B" stroke-linecap="round" stroke-linejoin="round"/>
</g>
<defs>
<clipPath id="clip0_24_1934">
<rect width="506" height="539" fill="white" transform="translate(54.1306) rotate(45)"/>
</clipPath>
</defs>
</svg>
