<svg width="500" height="720" viewBox="0 0 500 720" fill="none" xmlns="http://www.w3.org/2000/svg">
<g clip-path="url(#clip0_24_1983)">
<path d="M494.233 725.302C490.548 715.513 486.988 705.667 482.859 696.059C478.701 686.328 476.242 675.957 475.591 665.397C475.068 657.266 474.374 649.112 474.511 640.98C474.966 612.589 461.897 592.011 437.956 578.088C427.435 571.978 416.015 567.413 405.051 562.042C391.402 555.375 378.596 547.471 367.517 537.057C349.911 520.432 334.295 502.045 318.861 483.375C308.181 470.452 295.214 459.3 282.658 448.045C268.839 435.678 254.223 424.254 240.131 412.136C224.276 398.452 205.27 391.786 185.537 386.607C179.44 385.006 173.219 383.688 167.339 381.417C153.485 376.023 147.378 369.3 151.415 352.572C155.316 336.673 157.978 320.671 156.909 304.295C156.283 294.608 154.27 284.989 153.724 275.325C153.155 265.32 153.303 255.258 153.724 245.242C153.945 237.066 154.705 228.913 155.999 220.837C161.765 186.949 170.66 154.151 191.758 126.01C208.582 82.4742 171.183 71.8625 150.38 71.9987C149.05 71.9987 147.719 71.9419 146.399 71.9987C131.045 72.7558 115.69 73.5129 100.336 74.27C83.036 75.1445 71.0366 66.9451 62.1536 52.6927C57.3688 44.7693 52.0487 37.1808 46.2303 29.9798C38.2687 20.429 27.7821 15.7615 15.0776 14.9666C-2.88164 13.8309 -19.5442 17.3401 -33.7387 28.2991C-57.7374 46.8214 -62.7875 68.501 -51.1748 95.0524C-43.8273 111.826 -33.9548 127.543 -24.651 143.397C-14.7672 160.216 -3.63223 176.33 3.78349 194.501C9.41352 208.424 12.5639 223.017 14.9865 237.655C18.4783 258.835 26.0191 278.618 33.7874 298.435C37.5635 308.054 41.5103 317.877 43.2505 327.962C45.3888 340.318 39.6564 351.027 30.9668 359.624C21.2535 369.243 10.3574 377.715 1.07638 387.697C-6.97627 396.362 -13.8348 406.231 -20.6249 415.975C-28.4501 427.206 -35.6381 438.79 -47.3986 446.637C-56.6114 452.792 -67.0071 455.722 -77.5961 456.563C-91.9612 457.698 -106.395 457.301 -120.271 451.793C-131.792 447.25 -141.585 440.084 -151.549 433.009C-162.558 425.196 -173.386 416.906 -185.226 410.558C-192.267 406.776 -200.558 405.311 -208.497 403.21" stroke="#ECC56B" stroke-linecap="round" stroke-linejoin="round" stroke-dasharray="3 3"/>
<path d="M463.069 730.082C458.427 715.243 455.003 700.051 452.833 684.657C449.625 663.795 447.089 642.774 436.409 623.866C426.32 605.979 414.355 589.796 397.738 577.304C379.46 563.563 361.922 548.913 346.556 531.878C334.329 518.25 322.671 504.191 311.297 489.859C295.374 469.804 276.345 453.121 256.1 437.62C244.533 428.761 232.966 419.96 219.647 413.85C210.465 409.674 200.701 406.913 190.689 405.663C176.847 403.868 163.392 406.048 149.744 406.866C136.948 407.627 124.187 407.298 112.722 399.723C109.007 397.345 105.807 394.249 103.309 390.618C100.81 386.986 99.065 382.892 98.1749 378.577C96.6281 371.445 99.7102 365.063 104.84 359.885C111.232 353.411 117.76 347.052 124.175 340.579C135.049 329.551 141.555 316.31 142.271 300.831C143.124 282.115 142.817 263.355 143.636 244.628C144.171 232.136 145.308 219.564 147.048 207.151C149.164 192.127 152.303 177.238 154.85 162.271C156.522 152.447 158.399 142.635 159.309 132.744C160.355 121.262 153.827 113.381 144.591 107.862C135.831 102.703 125.814 100.058 115.645 100.219C104.241 100.072 92.8522 99.3407 81.5235 98.027C70.2634 96.8914 61.21 90.6113 53.1687 83.2636C44.0696 74.962 35.5279 66.0586 27.0089 57.2006C20.1445 50.0415 11.1641 45.2656 1.38372 43.5728C-7.26037 41.9602 -21.2729 49.9779 -26.4935 59.4719C-32.0666 69.6132 -31.9302 80.2656 -29.9056 91.27C-25.9703 113.074 -15.2105 132.085 -5.31532 151.402C1.34972 164.406 8.98139 176.977 12.7234 191.218C16.8293 206.845 20.685 222.539 24.0972 238.348C28.1462 257.517 34.3905 275.756 44.0355 292.859C50.7688 304.817 57.2518 316.923 63.2913 329.199C65.7897 334.393 67.5066 339.926 68.3867 345.621C69.8084 354.57 64.4515 360.657 57.6954 365.415C52.4454 369.199 46.9386 372.614 41.2148 375.636C19.6475 386.528 1.96344 403.789 -9.43277 425.071C-13.9823 433.418 -19.3393 441.322 -24.1276 449.544C-30.6789 460.787 -40.995 466.715 -53.1764 469.293C-70.0437 472.847 -87.2978 472.7 -104.358 471.371C-124.172 469.826 -141.892 461.57 -157.815 449.567C-168.655 441.413 -179.494 433.202 -190.879 425.843C-197.294 421.698 -204.801 419.245 -211.807 416.019" stroke="#ECC56B" stroke-linecap="round" stroke-linejoin="round"/>
<path d="M433.497 730.082C433.497 721.758 433.36 713.423 433.497 705.098C433.975 679.819 428.311 656.107 414.617 634.688C404.46 618.869 393.95 603.231 382.69 588.195C375.059 578.322 366.727 569.008 357.759 560.326C335.352 538.033 315.676 513.481 296.977 488.144C284.841 471.734 269.566 458.618 253.188 446.693C241.814 438.392 229.997 430.862 216.792 425.65C198.594 418.461 180.237 419.665 161.595 423.322C152.405 425.127 143.067 426.865 133.74 427.206C115.702 427.876 99.5622 421.618 84.8331 411.477C81.0229 408.854 77.2468 406.173 73.4593 403.527C57.2858 392.239 37.7228 395.305 23.9719 406.367C11.6541 416.281 3.56711 429.079 -1.55111 443.843C-4.14433 451.304 -6.46459 458.89 -8.37539 466.556C-10.8208 476.39 -7.15821 484.17 0.621468 490.404C8.69687 496.889 17.2612 502.965 24.3698 510.403C35.0385 521.544 44.6381 533.707 54.6698 545.449C65.8275 558.509 78.2932 569.457 95.6155 573.977C106.191 576.765 117.248 577.226 128.019 575.328C144.853 572.375 161.322 567.458 178.132 564.324C199.879 560.258 221.432 560.144 241.825 570.956C253.916 577.361 261.457 587.445 267.473 599.347C277.824 619.789 277.903 641.831 276.118 663.534C274.446 683.748 277.005 702.941 282.715 722.054C283.488 724.643 283.852 727.346 284.455 730.003" stroke="#ECC56B" stroke-linecap="round" stroke-linejoin="round"/>
<path d="M408.474 730.082C409.612 722.701 410.59 715.319 411.887 707.949C414.714 693.292 413.27 678.133 407.724 664.272C405.153 657.878 401.321 651.928 397.579 646.102C386.728 629.158 375.57 612.43 364.663 595.52C353.755 578.61 340.596 563.722 327.129 548.958C315.076 535.684 304.438 521.195 295.385 505.724C277.608 475.845 252.938 453.564 221.285 439.55C205.361 432.509 188.3 432.407 171.319 436.984C157.022 440.822 142.623 444.161 127.542 443.4C111.903 442.605 97.3783 438.097 83.1838 431.976C74.0847 428.08 65.1222 424.026 55.8866 420.687C44.2512 416.508 34.2766 421.278 26.5197 429.284C17.796 438.301 13.7126 449.794 13.7808 462.615C13.8491 473.199 19.4678 481.365 25.2798 489.246C36.9607 504.963 48.9601 520.454 61.0732 535.808C71.6281 549.197 84.7534 559.179 102.019 561.825C114.162 563.672 126.556 562.976 138.415 559.781C151.199 556.374 164.063 552.967 177.086 550.798C188.676 548.833 200.436 547.664 212.345 549.912C222.467 551.831 232.999 551.809 242.986 554.194C263.459 559.077 277.346 571.705 285.228 591.443C292.61 609.965 297.364 628.817 295.851 648.839C295.1 658.707 293.201 668.497 292.667 678.365C292.49 684.466 293.04 690.565 294.304 696.536C296.431 707.767 299.138 718.885 301.606 730.049" stroke="#ECC56B" stroke-linecap="round" stroke-linejoin="round"/>
<path d="M268.008 729.481C265.734 719.453 262.925 709.505 261.355 699.364C260.218 692.118 260.661 684.6 260.638 677.241C260.559 656.311 264.562 635.222 256.191 614.781C249.731 598.973 240.939 585.754 224.197 579.678C215.253 576.597 205.78 575.345 196.342 575.999C178.576 576.862 162.221 583.528 145.16 586.867C134.685 588.922 123.959 590.773 113.313 590.739C93.2614 590.739 74.9724 584.629 61.0622 569.332C51.7584 559.111 43.2394 548.152 34.2427 537.625C26.9748 529.119 19.1156 521.521 8.74271 516.456C-7.65832 508.507 -21.9666 512.459 -32.2941 525.667C-41.9319 537.882 -49.2868 551.731 -54.0065 566.55C-56.7248 575.101 -60.6032 583.289 -64.1518 591.534C-69.4748 603.958 -79.5519 609.171 -92.5863 609.103C-107.008 609.012 -121.442 608.728 -135.227 613.747C-145.372 617.438 -155.393 621.493 -165.368 625.649C-180.961 632.145 -196.475 638.868 -212 645.489" stroke="#ECC56B" stroke-linecap="round" stroke-linejoin="round"/>
<path d="M251.516 730.083C249.992 722.701 248.707 715.32 246.967 707.95C243.964 695.696 244.522 683.465 245.727 671.018C247.172 656.05 248.434 640.799 243.452 626.217C237.766 609.546 228.189 595.907 209.399 592.92C201.111 591.74 192.686 591.921 184.456 593.454C168.215 596.327 152.314 601.131 136.049 603.845C118.773 606.718 101.291 608.944 83.73 604.651C72.319 601.946 62.2416 595.28 55.2955 585.845C46.2874 573.989 37.8595 561.667 28.3738 550.231C23.4603 544.314 17.4435 538.67 10.7671 535.013C-1.98291 528.029 -14.6875 531.72 -23.7411 543.292C-33.4998 555.784 -36.9802 570.389 -37.3897 585.856C-37.8674 604.026 -35.1148 621.958 -31.8505 639.822C-30.5893 647.519 -29.8105 655.287 -29.5188 663.08C-28.2904 686.259 -24.9693 708.937 -14.7328 730.083" stroke="#ECC56B" stroke-width="2" stroke-linecap="round" stroke-linejoin="round"/>
<path d="M233.318 730.084C231.612 722.327 229.61 714.616 228.257 706.792C225.982 693.618 226.346 680.422 227.358 667.044C228.496 652.213 228.223 637.063 216.826 625.025C208.501 616.247 197.752 615.077 186.686 616.054C174.891 617.087 163.199 619.222 151.427 620.437C122.06 623.469 93.3408 628.898 66.1233 640.879C56.2394 645.228 46.1738 648.828 37.0407 654.983C23.6082 664.069 16.0104 676.402 15.328 692.074C14.9868 699.739 17.8303 707.757 20.2871 715.275C21.9249 720.329 25.3937 724.803 28.0552 729.527" stroke="#ECC56B" stroke-linecap="round" stroke-linejoin="round"/>
<path d="M215.689 729.481C209.786 712.117 206.681 694.185 203.473 676.106C199.617 654.415 193.874 648.407 170.762 643.092C159.104 640.424 147.275 640.356 135.503 641.003C124.798 641.626 114.35 644.53 104.862 649.52C90.7361 656.913 77.0761 665.204 63.3138 673.278C60.494 675.123 57.8311 677.197 55.3522 679.479C43.7509 689.166 43.1481 702.703 49.1307 715.819C51.2804 720.509 54.0101 724.905 56.4782 729.447" stroke="#ECC56B" stroke-linecap="round" stroke-linejoin="round"/>
<path d="M382.315 730.083C384.589 721.952 386.773 713.787 389.139 705.678C394.826 686.032 388.286 669.394 375.911 654.676C368.498 645.742 359.724 638.028 349.911 631.816C341.255 626.387 336.421 627.273 331.712 636.426C325.082 649.509 318.28 662.671 315.846 677.31C313.993 688.489 314.717 699.942 317.962 710.8C319.838 717.182 321.374 723.667 323.114 730.106" stroke="#ECC56B" stroke-linecap="round" stroke-linejoin="round"/>
<path d="M193.51 730.083C187.425 714.331 182.534 698.092 173.628 683.522C161.879 664.272 139.427 658.719 117.897 667.736C107.661 672.176 98.2396 678.291 90.0196 685.827C78.5548 696.048 76.917 708.211 84.89 722.168C86.3231 724.666 87.9041 727.096 89.4395 729.549" stroke="#ECC56B" stroke-linecap="round" stroke-linejoin="round"/>
<path d="M10.9601 87.8403C-0.0952611 91.7583 -4.17828 101.252 -1.65329 114.551C1.75885 132.664 9.52699 149.211 16.0897 166.2C21.8428 181.448 26.0346 197.238 28.6009 213.329C32.8547 238.677 37.5975 263.866 53.0204 285.454C60.8114 296.356 69.4671 306.259 80.2267 314.549C95.0126 325.906 112.346 320.126 121.343 307.633C127.291 299.389 129.976 290.122 130.863 280.378C132 267.886 132.387 255.394 133.24 242.902C134.298 227.377 135.515 211.864 136.652 196.34C137.471 184.609 138.733 172.878 138.722 161.135C138.756 154.018 137.603 146.944 135.31 140.205C130.453 126.498 118.556 122.421 105.374 120.808C91.7255 119.139 77.8381 118.843 65.0426 113.336C56.6795 109.591 48.5138 105.421 40.5775 100.843C31.251 95.6535 22.2884 89.7936 11.5402 87.8403" stroke="#ECC56B" stroke-linecap="round" stroke-linejoin="round"/>
<path d="M45.0818 130.995C42.2383 131.756 39.1447 132.029 36.597 133.369C31.0465 136.276 28.9425 144.293 30.205 152.016C32.5935 166.552 34.3222 181.179 36.5856 195.727C39.4518 214.227 40.6348 232.999 47.243 250.851C53.4758 267.659 62.8363 281.934 78.1113 291.621C93.1248 301.149 109.014 297.708 115.941 280.264C119.125 272.247 120.399 263.377 121.764 254.781C125.301 232.567 124.357 210.138 123.902 187.777C123.529 178.739 122 169.786 119.353 161.135C115.497 147.576 104.396 141.636 91.6349 139.07C77.5314 136.23 63.2005 134.402 49.0173 132.097C47.851 131.811 46.7098 131.431 45.6052 130.961" stroke="#ECC56B" stroke-linecap="round" stroke-linejoin="round"/>
<path d="M67.8295 160.523C58.0935 162.692 53.2599 169.801 52.7139 178.693C51.8979 193.066 51.8675 207.472 52.6228 221.848C53.2711 235.419 57.0926 248.297 65.6002 259.324C68.2855 262.845 71.3354 266.073 74.6993 268.954C86.6531 279.016 101.735 275.961 106.387 259.869C108.662 251.92 110.823 243.686 111.425 235.464C112.637 219.433 111.157 203.312 107.046 187.767C104.282 177.433 98.9937 168.813 89.4283 163.351C82.8201 159.58 75.5295 160.58 68.3981 160.5" stroke="#ECC56B" stroke-linecap="round" stroke-linejoin="round"/>
<path d="M53.0434 446.705C38.6556 449.76 36.8244 462.718 39.9749 473.393C44.3539 488.156 53.237 500.649 60.9598 513.731C66.5216 523.146 72.6521 531.97 81.4327 538.715C89.5955 545.044 99.5399 548.659 109.867 549.05C123.22 549.731 135.538 545.87 147.981 542.122C158.729 538.897 169.523 536.081 180.965 536.342C195.364 536.671 209.774 536.285 224.185 536.467C235.183 536.615 246.171 537.33 257.169 537.489C261.749 537.709 266.338 537.327 270.818 536.353C279.189 534.184 282.078 528.165 280.667 519.989C276.88 498.037 264.983 481.377 248.059 467.828C235.366 457.699 221.035 450.351 204.838 448.159C197.65 447.194 189.927 448.284 182.728 449.772C171.217 452.156 160.083 456.586 148.527 458.403C139.513 459.857 130.323 459.857 121.309 458.403C102.406 455.257 83.7754 450.589 64.9518 446.83C61.3008 446.104 57.3882 446.728 53.578 446.728" stroke="#ECC56B" stroke-linecap="round" stroke-linejoin="round"/>
<path d="M197.491 466.012C185.946 467.988 175.733 473.552 165.041 477.868C154.35 482.183 142.953 482.127 131.5 480.298C118.727 478.254 105.863 476.482 92.8291 477.391C80.6591 478.231 73.4937 487.351 76.4737 498.911C78.2703 506.518 81.9149 513.566 87.0855 519.433C97.9361 531.323 111.323 533.163 125.756 528.881C134.935 526.156 143.556 521.647 152.553 518.308C163.108 514.402 173.981 514.901 184.957 516.503C202.211 519.024 219.385 521.874 236.742 516.105C250.277 511.62 252.426 499.366 245.761 489.315C234.467 472.281 218.237 465.024 197.991 466.012" stroke="#ECC56B" stroke-linecap="round" stroke-linejoin="round"/>
<path d="M1.86136 557.998C-11.7872 561.201 -13.7774 576.395 -9.30752 588.013C-6.44132 595.452 -1.91478 602.277 6.94542 604.662C11.9499 606.002 16.6018 606.842 20.594 602.822C24.5862 598.802 26.406 594.872 25.4734 588.615C24.0289 579.03 20.924 570.695 13.6903 564.369C10.5284 561.575 6.21753 560.088 2.43005 557.998" stroke="#ECC56B" stroke-linecap="round" stroke-linejoin="round"/>
</g>
<defs>
<clipPath id="clip0_24_1983">
<rect width="712" height="720" fill="white" transform="translate(-212)"/>
</clipPath>
</defs>
</svg>
