<svg width="412" height="685" viewBox="0 0 412 685" fill="none" xmlns="http://www.w3.org/2000/svg">
<g clip-path="url(#clip0_24_1835)">
<path d="M-395 517.781C-385.377 517.861 -375.881 515.581 -367.341 511.141C-343.324 498.924 -319.507 486.345 -295.891 473.405C-282.527 466.07 -275.857 453.004 -271.897 439.207C-268.307 426.089 -265.94 412.667 -264.826 399.112C-264.108 390.857 -266.264 382.178 -267.513 373.746C-269.246 362.06 -271.131 350.42 -266.842 338.899C-266.157 336.796 -265.159 334.809 -263.884 333.003C-249.082 313.781 -240.644 291.729 -234.245 268.615C-232.748 263.191 -229.602 258.143 -226.656 253.285C-221.353 244.452 -210.77 241.292 -199.551 243.143C-175.227 247.153 -154.51 258.804 -135.254 273.403C-124.341 281.658 -114.041 290.844 -103.282 299.276C-92.9468 307.342 -81.0914 311.293 -67.9279 309.889C-59.6786 309.005 -52.4192 304.925 -46.1616 299.818C-30.099 286.752 -15.1207 272.424 -3.18281 255.455C1.55544 248.417 5.13623 240.666 7.4234 232.495C11.2181 219.676 4.37115 210.525 -5.33943 203.013C-18.0198 193.213 -28.2606 181.527 -34.318 166.456C-47.0336 134.722 -30.3937 92.5992 -4.77376 77.7996C3.78192 72.8467 12.5615 68.1297 20.5398 62.3395C33.5029 52.9054 46.0536 43.0469 58.3568 32.8581C77.5541 16.7612 100.511 9.68565 123.986 3.8837C131.304 2.07943 138.893 1.27754 146.377 0.275173C157.478 -1.1989 166.741 3.37657 174.012 10.9828C192.313 30.1339 213.255 45.7473 235.422 60.0753C244.849 66.2074 252.191 75.2523 257.247 85.3704C269.09 109.144 280.545 133.201 286.709 159.192C290.704 175.902 287.887 180.761 274.983 189.853C265.19 196.704 254.949 203.001 244.908 209.405C225.888 221.457 217.002 239.924 211.098 260.773C207.488 273.668 202.939 286.28 197.487 298.509C191.158 312.59 186.621 326.812 186.433 342.319C186.197 361.034 185.749 379.737 185.254 398.451C185.089 404.76 185.254 411.223 183.958 417.32C180.423 433.475 175.32 437.072 159.858 439.537C131.575 444.065 106.191 454.395 83.6585 472.19C74.9819 479.279 65.6811 485.567 55.8702 490.976C45.0904 496.87 32.8363 499.516 20.5869 498.594C9.25002 497.58 -1.92186 494.396 -13.0702 491.707C-20.0945 490.022 -26.9934 487.851 -33.7169 485.209C-47.1868 479.879 -56.1078 469.879 -60.8217 456.306C-65.1231 443.534 -72.7242 433.039 -84.0022 426.447C-104.319 414.572 -115.491 395.892 -125.932 376.069C-130.127 368.097 -135.101 360.137 -141.252 353.663C-161.616 332.543 -195.78 345.078 -204.383 368.227C-208.718 379.79 -209.004 392.483 -205.196 404.23C-200.133 419.897 -194.232 435.281 -187.519 450.315C-182.51 461.825 -173.142 469.832 -162.96 477.084C-152.283 484.702 -141.123 491.884 -133.321 502.945C-127.345 511.078 -123.717 520.697 -122.833 530.752C-121.812 541.546 -121.438 552.391 -121.713 563.229C-122.195 579.653 -128.882 595.283 -140.427 606.968C-148.005 614.751 -155.441 622.664 -162.818 630.553C-165.935 633.857 -168.365 637.747 -169.967 641.998C-171.569 646.25 -172.312 650.777 -172.152 655.317C-171.951 665.565 -170.714 675.801 -169.924 685.978" stroke="#ECC56B" stroke-linecap="round" stroke-linejoin="round" stroke-dasharray="3 3"/>
<path d="M410.896 686.155C407.149 675.541 403.13 664.928 399.748 654.232C396.071 642.522 393.278 630.529 389.554 618.855C385.63 606.52 380.645 594.55 371.288 585.199C359.503 573.406 346.776 562.415 335.462 550.163C320.644 534.312 308.771 515.942 300.403 495.917C294.511 481.672 299.224 469.903 308.275 459.36C316.23 450.056 325.257 441.671 333.482 432.614C337.872 427.877 341.817 422.745 345.267 417.284C354.247 402.697 353.599 387.225 347.624 371.883C341.143 355.22 330.477 340.856 321.132 325.774C313.814 313.934 306.743 301.717 304.256 287.92C302.489 278.285 302.654 268.273 302.312 258.438C302.13 250.02 300.119 241.743 296.42 234.181C292.814 226.834 286.579 223.921 279.214 223.697C263.152 223.202 248.904 233.851 243.341 250.219C240.671 258.289 238.7 266.574 237.449 274.983C235.245 289.134 229.141 301.469 220.75 312.719C210.71 326.187 204.004 341.14 202.071 357.684C199.255 381.682 202.743 404.926 213.679 426.801C217.78 434.985 222.188 443.098 225.346 451.66C228.505 460.221 227.915 469.502 220.632 475.587C217.274 478.459 213.151 480.287 208.769 480.846C204.388 481.405 199.938 480.672 195.967 478.735C189.945 476.035 184.053 473.016 178.29 469.891C168.638 464.702 158.751 460.02 147.579 459.961C130.868 459.867 116.691 466.495 104.482 477.65C95.0548 486.271 86.0512 495.563 76.0107 503.476C64.6031 512.474 50.9565 517.273 36.5674 518.806C25.7947 520.024 14.9449 520.418 4.11236 519.986C-5.57465 519.561 -15.1556 517.238 -24.8308 516.094C-40.0449 514.302 -55.2235 514.738 -69.0352 522.097C-82.6111 529.325 -87.7021 542.274 -88.4328 556.826C-88.8806 565.647 -87.7846 574.515 -87.4075 583.406C-87.1402 587.796 -87.8528 592.189 -89.4937 596.269C-91.1346 600.348 -93.6626 604.011 -96.8942 606.991C-106.782 616.425 -117.329 625.152 -126.863 634.904C-138.247 646.567 -143.962 661.084 -145.282 677.358C-145.53 680.329 -146.048 683.254 -146.461 686.226" stroke="#ECC56B" stroke-linecap="round" stroke-linejoin="round"/>
<path d="M-103.942 686.154C-97.2364 667.522 -82.0342 659.55 -64.3689 654.904C-58.3705 653.324 -52.1482 652.628 -46.0791 651.272C-31.9375 648.076 -21.3313 640.116 -13.5062 627.687C-4.66771 613.642 4.35937 599.668 14.2703 586.413C28.6947 567.038 48.9762 557.45 72.5927 554.431C79.6635 553.535 86.7343 552.497 93.8051 552.167C98.7422 551.891 103.694 552.288 108.524 553.346C116.608 555.221 121.994 560.646 124.445 568.594C125.93 573.417 126.72 578.465 128.063 583.335C133.508 602.745 147.508 613.029 165.904 618.111C175.156 620.819 184.616 622.756 194.187 623.901C198.646 624.419 203.165 623.948 207.422 622.522C211.679 621.095 215.569 618.748 218.817 615.646C224.085 610.54 224.403 603.111 222.352 596.354C220.302 589.597 216.554 583.052 214.339 576.177C211.605 567.663 206.608 558.37 214.421 550.41C219.427 545.315 225.423 541.302 232.039 538.617C245.238 533.405 258.767 530.952 272.107 539.455C280.651 544.868 287.551 552.519 292.059 561.578C300.202 577.627 311.327 589.962 328.203 596.955C349.509 605.859 361.883 622.816 368.954 644.126C373.585 658.076 378.028 672.086 382.553 686.072" stroke="#ECC56B" stroke-linecap="round" stroke-linejoin="round"/>
<path d="M396.719 686.154C391.015 668.23 385.307 650.309 379.595 632.392C373.444 613.276 363.886 596.519 347.152 584.502C328.579 571.153 314.732 553.382 301.628 534.973C293.284 523.181 283.656 512.697 270.988 505.41C263.681 501.223 255.738 501.659 247.984 503.169C240.815 504.729 233.735 506.67 226.772 508.983C209.531 514.254 193.774 510.917 178.938 501.259C172.409 496.99 166.187 492.178 159.399 488.357C144.196 479.808 130.774 482.685 119.908 494.254C116.325 497.772 112.989 501.535 109.926 505.516C98.2714 522.025 81.0422 529.101 62.6345 534.431C43.1309 540.08 23.5683 545.54 4.20609 551.648C-8.59207 555.693 -16.4289 564.974 -21.3784 577.474C-25.1367 586.683 -29.6994 595.542 -35.0133 603.948C-43.1565 617.062 -56.98 622.698 -70.2849 628.901C-80.6436 633.736 -91.1673 638.442 -100.925 644.361C-115.149 652.982 -122.314 666.897 -126.333 682.617C-126.475 683.792 -126.475 684.979 -126.333 686.154" stroke="#ECC56B" stroke-linecap="round" stroke-linejoin="round"/>
<path d="M366.02 686.155C361.6 668.879 356.993 651.662 345.986 637.133C338.149 626.838 327.413 622.652 314.721 621.65C291.152 619.81 271.342 629.291 252.097 641.19C243.329 646.807 234.253 651.925 224.91 656.52C210.768 663.195 196.332 661.45 182.485 655.341C167.342 648.678 152.481 641.355 137.585 634.114C121.676 626.414 109.679 614.303 99.7684 599.916C95.2548 593.348 90.5409 587.05 82.6806 583.902C68.3032 578.147 55.5758 582.31 44.3921 591.166C24.3582 607.133 12.7149 628.372 8.20138 653.667C6.2687 664.504 7.16433 675.33 7.09362 686.179" stroke="#ECC56B" stroke-linecap="round" stroke-linejoin="round"/>
<path d="M152.882 685.565C149.936 681.827 147.449 677.546 143.926 674.456C137.173 668.53 130.091 662.99 122.713 657.864C109.314 648.56 95.6083 639.633 82.0206 630.635C65.086 619.444 50.0723 625.836 43.7203 643.607C39.3718 655.824 40.9038 668.371 43.0486 680.801C43.3432 682.558 43.4493 684.338 43.6496 686.119" stroke="#ECC56B" stroke-linecap="round" stroke-linejoin="round"/>
<path d="M241.444 685.565C251.284 678.489 260.912 671.06 271.023 664.338C281.853 657.192 294.239 653.902 306.99 652.546C318.174 651.366 330.819 660.364 335.273 671.945L340.588 685.541" stroke="#ECC56B" stroke-linecap="round" stroke-linejoin="round"/>
<path d="M249.127 378.935C251.602 389.937 256.54 399.135 266.804 405.008C275.136 409.725 285.118 410.032 291.647 404.937C298.717 399.442 300.921 389.607 298.246 380.09C295.653 370.963 289.997 364.276 282.726 358.934C275.926 353.946 268.171 352.932 260.335 356.576C251.92 360.479 248.998 367.767 249.092 376.623L249.092 378.392" stroke="#ECC56B" stroke-linecap="round" stroke-linejoin="round"/>
<path d="M-2.39276 133.166C-0.224382 138.885 0.918735 145.312 4.31272 150.159C12.1613 161.373 24.9713 162.671 40.1264 156.22C49.5541 152.222 58.8051 147.706 68.5039 144.534C85.6035 138.932 101.984 141.586 115.525 153.437C126.131 162.753 135.464 173.65 145.187 184.003C153.436 192.789 163.642 198.732 174.224 203.886C180.199 206.798 186.94 206.681 193.645 204.735C208.905 200.332 223.293 193.331 236.176 184.039C249.057 174.782 257.518 162.989 256.069 146.774C253.901 122.941 246.429 100.972 229.695 82.9293C216.92 69.1437 200.893 59.3441 186.516 47.5515C179.015 41.3723 171.144 35.658 162.946 30.4405C148.934 21.6315 133.485 22.1857 118.165 25.7235C96.8814 30.6646 78.8509 41.8322 62.588 56.2663C48.2814 68.9669 33.5977 81.2547 18.914 93.5072C9.00304 101.762 0.683056 111.031 -1.67388 124.274C-2.02791 127.013 -2.24033 129.768 -2.31026 132.529" stroke="#ECC56B" stroke-linecap="round" stroke-linejoin="round"/>
<path d="M-2.39325 337.519C-1.21478 344.807 0.741469 352.071 0.988948 359.394C1.40141 372.166 0.988981 384.996 0.505809 397.779C0.0226377 410.563 -2.16932 423.346 5.29039 435.008C12.043 445.563 21.5768 450.233 34.21 450.551C48.2338 450.905 61.1026 446.872 73.724 441.978C91.2361 435.174 108.713 428.169 125.636 420.044C140.744 412.791 151.633 401.176 154.048 383.605C156.111 368.616 154.756 353.864 147.425 340.562C137.797 323.097 127.285 306.104 116.785 289.123C111.506 280.585 105.743 272.318 99.6739 264.358C91.024 252.955 79.6989 246.103 64.9091 247.247C53.5487 248.132 43.7792 253.58 35.4474 260.879C20.4337 274.099 8.08336 289.488 1.09504 308.616C-2.2636 317.79 -2.74677 327.33 -2.44036 336.918" stroke="#ECC56B" stroke-linecap="round" stroke-linejoin="round"/>
<path d="M-27.188 430.928C-26.3984 434.077 -25.7385 437.273 -24.8311 440.362C-19.7283 457.356 -7.29547 466.66 8.82598 471.625C26.3027 477.002 43.0016 473.771 58.9816 465.728C73.6064 458.37 87.9719 450.48 102.726 443.393C116.302 436.872 130.303 431.259 143.973 424.938C158.491 418.24 165.515 406.211 167.648 390.739C171.254 364.418 167.306 339.005 159.399 313.899C155.934 302.837 153.424 291.493 150.454 280.255C148.406 272.134 144.354 264.657 138.67 258.509C129.996 249.287 121.452 239.853 112.001 231.457C105.272 225.478 96.5158 223.414 87.3709 222.271C61.4446 219.039 41.3399 229.087 25.4659 248.509C12.7503 264.04 0.482409 279.983 -11.0666 296.387C-19.505 308.23 -23.8722 322.495 -23.5112 337.036C-23.2365 343.585 -22.4484 350.103 -21.1543 356.529C-18.6441 370.35 -19.9051 383.923 -23.6409 397.284C-26.5538 408.063 -27.747 419.235 -27.1763 430.386" stroke="#ECC56B" stroke-width="2" stroke-linecap="round" stroke-linejoin="round"/>
<path d="M220.785 382.485C224.722 402.827 236.318 418.935 249.811 433.794C255.421 439.973 262.362 444.985 271.024 446.153C274.603 446.576 278.231 446.173 281.63 444.973C300.356 438.429 315.393 427.285 325.445 409.69C334.107 394.478 330.937 380.114 323.524 365.951C315.283 350.501 304.502 336.549 291.635 324.677C283.068 316.635 273.227 311.033 260.995 316.423C255.294 318.843 249.956 322.041 245.133 325.927C238.922 330.903 233.377 336.658 228.634 343.05C223.031 350.912 220.24 360.434 220.715 370.079C220.903 374.006 220.715 377.956 220.715 381.871" stroke="#ECC56B" stroke-linecap="round" stroke-linejoin="round"/>
<path d="M14.1406 343.487C14.9302 348.617 16.0498 353.711 16.4269 358.817C17.0868 367.85 16.8865 376.966 17.8057 385.94C18.596 393.707 19.9749 401.402 21.9303 408.959C25.0886 421.176 35.3767 428.323 48.3752 429.301C67.2307 430.634 84.4009 425.009 101.524 418.511C111.155 414.953 120.012 409.577 127.615 402.674C141.557 389.997 143.372 370.173 135.617 353.617C131.257 344.312 125.494 335.586 119.779 327.001C110.209 312.637 100.546 298.31 90.2108 284.548C81.2427 272.555 69.399 265.302 53.7608 269.842C44.1327 272.637 36.5787 278.993 30.0264 286.765C18.5835 300.361 13.1036 315.751 14.1406 333.499C14.3292 336.635 14.1406 339.796 14.1406 342.933" stroke="#ECC56B" stroke-linecap="round" stroke-linejoin="round"/>
<path d="M128.676 85.9013C132.023 90.0405 134.745 94.9933 138.846 98.142C147.096 104.427 156.005 109.793 164.773 115.395C166.563 116.561 168.565 117.362 170.665 117.753C175.002 118.508 179.763 120.112 183.004 115.394C185.867 111.279 183.499 107.682 181.271 104.192C172.726 90.6554 159.803 80.4584 144.656 75.2998C137.114 72.6346 130.114 77.2337 128.723 85.288" stroke="#ECC56B" stroke-linecap="round" stroke-linejoin="round"/>
<path d="M67.2777 97.7173C69.5404 105.783 76.5287 108.331 83.2578 109.993C106.785 115.979 128.608 127.337 147.013 143.178C159.304 153.555 172.869 162.152 188.896 164.911C207.351 168.084 223.484 164.593 229.329 144.864C232.534 134.097 229.989 122.965 225.534 112.423C219.901 99.0735 209.861 89.2267 199.349 80.1346C187.788 70.1345 175.32 61.125 162.816 52.2805C147.39 41.337 130.184 41.0068 113.32 47.6814C93.9936 55.3584 78.5675 68.2595 69.6229 87.6819C68.2912 90.5711 67.973 93.9437 67.1835 97.1159" stroke="#ECC56B" stroke-linecap="round" stroke-linejoin="round"/>
<path d="M51.9341 356.494C52.7119 361.211 53.1125 366.034 54.3617 370.645C56.8719 380.268 62.2457 387.414 72.5926 389.572C81.3722 391.4 88.8909 388.581 94.9835 382.426C101.442 375.869 100.192 367.779 96.6452 360.715C90.7789 348.931 82.1258 338.758 71.4377 331.081C62.3046 324.512 56.9072 329.901 54.5149 337.649C52.7119 343.439 52.7354 349.796 51.9576 355.904" stroke="#ECC56B" stroke-linecap="round" stroke-linejoin="round"/>
<path d="M30.6749 352.944C31.4644 359.241 31.8534 365.621 33.1261 371.812C34.6638 379.592 36.6309 387.281 39.0184 394.843C42.271 404.925 50.9328 410.079 60.2309 411.069C79.0864 413.086 96.9873 409.253 112.166 396.647C124.952 386.034 125.707 370.845 119.013 357.165C114.476 347.92 108.1 339.477 102.043 331.116C94.6657 320.856 87.1707 310.632 79.0039 301.009C62.9178 282.035 42.2474 292.354 34.2221 310.986C30.2506 320.243 30.3803 330.09 30.6867 339.925C30.7927 344.052 30.6867 348.18 30.6867 352.331" stroke="#ECC56B" stroke-linecap="round" stroke-linejoin="round"/>
</g>
<defs>
<clipPath id="clip0_24_1835">
<rect width="807" height="685" fill="white" transform="translate(-395)"/>
</clipPath>
</defs>
</svg>
