<svg width="324" height="352" viewBox="0 0 324 352" fill="none" xmlns="http://www.w3.org/2000/svg">
<g clip-path="url(#clip0_24_1993)">
<path d="M307.459 154.111C299.426 166.275 299.31 179.986 300.282 193.724C300.866 204.101 302.025 214.438 303.755 224.686C306.504 239.842 313.332 253.178 322.773 265.444C331.539 276.829 342.545 285.092 354.923 291.846C357.213 293.118 359.745 293.898 362.355 294.134C364.965 294.37 367.597 294.058 370.08 293.217C377.625 290.795 381.081 282.477 376.461 274.439C367.229 258.314 365.59 241.676 368.533 223.664C370.392 212.247 367.531 200.811 362.782 190.341C357.502 178.72 351.327 167.485 345.276 156.223C343.596 153.082 341.51 149.7 338.721 147.71C328.527 140.618 320.603 142.22 310.933 150.706C309.83 151.671 308.865 152.774 307.831 153.808" stroke="#ECC56B" stroke-linecap="round" stroke-linejoin="round"/>
<path d="M323.978 191.309C319.192 200.447 320.559 209.506 324.31 218.523C324.856 220.106 325.874 221.482 327.228 222.466C328.582 223.45 330.206 223.994 331.88 224.025C335.738 224.202 338.205 222.079 339.798 218.861C344.136 210.088 343.568 201.469 338.79 193.038C338.205 192.012 337.627 190.979 337.042 189.911C330.243 186.669 328.582 186.801 324.322 190.978" stroke="#ECC56B" stroke-linecap="round" stroke-linejoin="round"/>
<path d="M53.9182 140.445C49.2713 147.393 45.3961 154.629 43.1188 162.815C39.896 174.453 39.5188 185.698 45.3013 196.595C49.0531 203.655 55.3346 208.599 61.9127 212.255C75.1241 219.635 89.253 224.334 104.867 221.75C115.891 219.913 125.539 214.851 134.416 208.564C145.126 200.911 153.66 191.069 161.437 180.441C170.092 168.582 180.048 157.729 191.119 148.087C200.121 140.269 211.037 135.483 222.358 131.709C229.98 129.17 237.58 126.803 244.576 122.343C249.807 118.999 252.179 114.409 253.586 109.296C255.822 101.151 254.117 92.9394 252.054 84.8792C248.333 70.3777 243.372 56.3728 235.482 43.6025C226.208 28.5937 209.593 21.2843 191.78 26.7009C182.374 29.5782 174.201 34.639 166.199 40.368C155.544 48.0757 146.328 57.264 137.436 66.7485C131.308 73.2897 126.289 80.857 120.408 87.6462C109.034 100.77 97.8116 114.086 81.8717 122.175C72.0583 127.154 61.8525 131.602 54.3043 140.101" stroke="#ECC56B" stroke-linecap="round" stroke-linejoin="round"/>
<path d="M41.52 132.183C32.4645 146.719 26.6849 163.05 24.5839 180.041C23.0075 192.388 26.0823 203.597 34.5185 212.185C39.9865 217.735 47.5568 221.445 54.6862 225.073C65.3295 230.514 76.6711 234.466 88.3929 236.819C105.568 240.208 120.859 234.917 135.242 225.864C144.036 220.334 152.41 214.205 158.904 206.114C164.637 198.86 169.947 191.283 174.809 183.418C183.296 170 193.175 157.849 207.709 150.932C214.697 147.607 222.662 145.744 230.407 144.762C238.324 143.732 246.453 144.376 254.487 144.551C266.013 144.801 273.451 151.109 277.539 161.442C283.231 175.942 286.014 191.202 288.247 206.545C290.479 221.887 292.835 237.078 298.21 251.676C302.05 262.105 307.171 271.804 314.429 280.234C321.687 288.664 328.629 297.273 336.597 304.896C342.877 310.901 349.475 316.934 358.128 319.893C370.803 324.214 381.463 320.233 390.817 311.858C400.625 303.083 405.584 291.444 408.029 278.82C410.798 264.537 412.899 250.122 415.379 235.769C417.064 225.82 412.169 218.994 405.433 212.658C398.34 205.978 390.785 199.567 384.897 191.874C375.422 179.504 368.704 165.369 367.382 149.64C366.593 140.58 367.541 131.217 368.71 122.142C370.376 108.81 361.672 99.6912 350.312 96.3823C337.264 92.5712 325.301 97.2343 313.462 102.159C308.225 104.339 302.953 106.429 297.613 108.367C289.344 111.361 281.264 106.204 276.513 99.8674C263.465 82.4764 256.405 62.0444 246.623 42.9846C240.076 30.2482 230.462 21.0614 216.402 16.734C202.342 12.4066 189.401 14.9756 176.949 21.5472C167.128 26.7535 158.864 34.0397 150.255 40.9955C140.344 49.0059 132.596 58.7655 124.509 68.3667C117.802 76.3275 110.922 84.1712 103.829 91.8015C95.4403 100.824 84.8756 106.554 73.6017 111.203C66.7053 113.898 60.0438 117.159 53.6857 120.954C49.2267 123.747 45.7384 128.172 41.8647 131.811" stroke="#ECC56B" stroke-linecap="round" stroke-linejoin="round"/>
<path d="M135.934 81.8448C132.025 87.1311 128.206 92.4793 124.214 97.6967C117.61 106.257 111.247 115.058 104.112 123.088C99.3968 128.409 93.5247 132.725 88.0177 137.323C80.7461 143.368 72.5724 148.636 67.7733 157.058C61.8157 167.643 60.9224 177.682 68.0486 188.337C77.5571 202.588 95.8555 204.757 108.328 201.045C118.318 198.097 127.504 192.906 135.184 185.868C148.156 174.026 161.308 162.362 173.708 149.948C186.517 137.184 201.309 126.578 217.507 118.545C223.268 115.648 228.864 112.325 232.987 106.453C237.972 99.3473 239.339 91.8367 238.475 83.9137C237.354 72.8061 233.742 62.0967 227.906 52.5834C218.956 38.1188 204.668 33.4815 188.646 40.0685C179.167 43.9665 170.444 49.4998 162.878 56.416C153.862 64.6052 145.143 73.1457 136.306 81.5277" stroke="#ECC56B" stroke-linecap="round" stroke-linejoin="round"/>
<path d="M33.9465 120.474C25.418 133.217 20.2649 147.502 15.4149 161.856C11.9722 172.089 9.37011 182.501 8.96554 193.511C8.36522 210.832 18.8932 225.496 35.3087 231.999C52.2617 238.709 69.6698 244.303 86.5469 251.13C102.377 257.489 116.881 255.919 130.692 246.17C142.078 238.132 153.87 230.747 163.837 220.725C172.267 212.295 177.921 202.04 184.189 192.109C188.484 185.307 192.752 178.174 198.404 172.577C212.314 158.791 230.642 157.074 247.133 164.204C259.615 169.628 266.604 179.925 271.352 192.325C276.651 206.171 278.408 220.777 281.544 235.079C284.755 249.677 289.496 263.709 297.517 276.335C302.321 283.567 307.598 290.475 313.313 297.011C322.636 308.086 331.678 319.512 341.994 329.608C355.823 343.078 368.905 346.221 386.949 333.522C401.277 323.435 411.025 309.803 417.282 293.547C424.642 274.479 430.335 254.806 439.135 236.241C442.369 229.425 444.054 221.474 441.432 213.614C439.337 207.782 435.452 202.763 430.332 199.274C421.709 193.077 412.052 188.258 403.697 181.834C391.079 172.111 383.075 153.74 391.543 136.139C395.774 127.496 401.36 119.585 408.09 112.706C412.571 108.214 416.797 103.474 420.746 98.5074C422.511 96.2191 422.946 92.9049 424.395 88.9357C419.51 87.9802 415.839 86.4729 412.27 86.695C400.336 87.4858 389.142 84.4387 378.188 80.6266C358.108 73.6287 338.148 73.6721 317.834 79.5514C310.659 81.5732 303.268 82.7261 295.819 82.9855C285.732 83.431 278.687 77.3506 272.73 69.7537C264.302 59.0232 259.74 46.1204 252.717 34.6726C237.715 10.2273 208.446 -1.89255 182.632 8.0129C174.149 11.2618 166.574 17.0184 158.794 21.9619C147.973 28.8566 139.219 38.2308 130.582 47.5153C123.041 55.6212 116.478 64.636 109.074 72.8796C99.7544 83.2462 89.1195 91.884 75.7303 96.7749C65.9658 100.355 56.098 103.928 46.8911 108.687C42.0395 111.197 38.4957 116.255 34.36 120.157" stroke="#ECC56B" stroke-width="2" stroke-linecap="round" stroke-linejoin="round"/>
<path d="M142.82 90.1095C138.567 96.1952 134.03 102.109 130.128 108.422C124.067 118.229 117.779 128.001 114.915 139.391C114.095 142.203 113.522 145.08 113.202 147.991C112.488 158.429 120.003 162.525 128.643 161.391C138.869 160.064 147.717 155.458 155.478 148.95C166.334 139.844 176.721 130.214 187.632 121.149C194.324 115.599 201.657 110.828 208.584 105.555C227.51 91.1325 225.564 67.5148 209.833 56.1949C206.375 53.7024 200.739 53.1125 196.233 53.4314C187.469 54.0555 180.343 59.295 173.134 63.9007C161.859 71.0436 152.319 80.1839 143.151 89.7511" stroke="#ECC56B" stroke-linecap="round" stroke-linejoin="round"/>
<path d="M155.903 107.329C154.572 110.409 151.98 113.221 153.722 116.962C161.217 118.116 168.448 110.885 168.666 101.701C162.831 99.4369 159.701 103.627 156.248 106.984" stroke="#ECC56B" stroke-linecap="round" stroke-linejoin="round"/>
</g>
<defs>
<clipPath id="clip0_24_1993">
<rect width="455" height="352" fill="white"/>
</clipPath>
</defs>
</svg>
