<svg width="388" height="463" viewBox="0 0 388 463" fill="none" xmlns="http://www.w3.org/2000/svg">
<path d="M71.1805 356.204C81.1466 353.917 91.0738 351.422 100.364 347.108C111.903 341.703 122.09 334.621 127.651 322.498C129.329 318.822 130.244 314.844 130.341 310.804C130.717 300.786 129.522 290.885 128.924 280.918C128.841 276.298 129.508 271.694 130.899 267.288C133.862 256.191 144.036 250.396 155.587 252.995C163.077 254.704 170.454 256.874 177.677 259.492C190.904 264.221 201.871 258.193 206.951 244.666C213.188 228.008 210.746 211.844 204.82 195.979C196.089 172.59 179.119 157.868 154.925 151.8C137.097 147.382 119.92 151.228 103.015 156.998C89.6315 161.519 79.4185 169.991 73.9482 182.985C70.6088 190.95 69.1924 199.682 68.049 208.258C65.6841 226.046 59.2523 242.47 52.4566 258.933C44.4914 278.32 31.6667 294.536 19.9724 311.518C15.7754 317.599 12.6179 324.174 13.9433 332.243C15.6065 342.392 22.7269 347.134 30.9389 351.019C38.7665 354.957 47.4889 356.775 56.2378 356.294C60.9804 355.983 65.7621 356.294 70.5308 356.294" stroke="#ECC56B" stroke-linecap="round" stroke-linejoin="round"/>
<path d="M226.962 422.47C230.86 420.923 235.109 420.703 238.656 418C246.53 412.062 247.752 404.474 241.177 396.534C234.186 388.024 224.948 382.514 215.19 377.642C211.838 375.884 208.585 373.945 205.444 371.833C197.271 366.493 192.866 356.553 195.114 347.145C198.012 335.165 202.131 323.692 209.213 313.297C215.93 303.435 222.882 293.806 228.326 282.956C237.097 265.597 237.955 247.705 235.382 228.981C233.03 211.881 228.599 195.6 220.426 180.28C205.652 152.604 182.147 136.531 152.157 130.593C127.053 125.616 102.56 130.138 79.5356 141.417C65.9702 148.056 57.1864 158.698 52.0669 173.108C47.0903 187.115 45.3362 201.694 41.9059 215.987C36.3186 239.376 28.4704 261.595 12.6441 280.228C5.79644 288.284 -1.76587 295.82 -7.97685 304.357C-16.0459 315.428 -20.6327 327.746 -16.5787 341.909C-13.9799 351.186 -7.74306 357.878 -0.271693 363.232C14.801 374.003 32.1086 378.434 50.2868 381.007C71.8563 384.06 92.0874 378.239 112.656 373.717C129.756 369.949 147.103 367.935 164.566 369.3C177.417 370.3 187.188 376.277 191.944 389.245C195.387 398.627 199.623 407.631 207.328 414.7C212.469 419.509 219.209 422.245 226.247 422.379" stroke="#ECC56B" stroke-linecap="round" stroke-linejoin="round"/>
<path d="M229.548 445.859C241.082 443.876 252.257 440.188 262.708 434.919C267.767 432.388 272.509 429.264 276.832 425.615C291.437 412.79 291.852 400.316 278.131 384.23C271.374 376.291 263.266 369.651 255.431 362.817C238.539 348.16 235.577 330.619 243.022 310.154C247.037 299.109 251.052 288.064 253.586 276.461C256.062 264.934 256.558 253.071 255.054 241.378C252.923 223.408 247.791 206.399 241.879 189.403C232.342 162.116 214.93 141.573 189.969 127.033C177.889 119.958 164.99 114.381 151.56 110.428C138.271 106.411 124.145 106.052 110.669 109.388C94.6475 113.286 79.185 118.484 65.3857 127.28C46.9217 139.091 39.0865 158.036 34.2009 178.41C29.887 196.212 26.6776 214.286 20.5966 231.685C14.8533 248.135 6.43345 262.87 -6.02748 275.175C-13.4209 282.503 -21.0482 289.611 -27.4801 297.862C-46.8017 322.628 -43.0725 360.4 -14.4864 377.669C7.05713 390.662 30.6407 397.302 55.5496 400.694C71.6487 402.89 86.8773 399.771 102.327 397.107C115.723 394.781 129.055 392.352 142.607 395.314C149.958 396.962 156.812 400.333 162.604 405.15C168.894 410.299 174.602 416.12 179.626 422.51C185.919 430.446 193.911 436.871 203.015 441.312C211.188 445.47 219.985 446.223 229.002 445.872" stroke="#ECC56B" stroke-width="2" stroke-linecap="round" stroke-linejoin="round"/>
<path d="M224.363 461.451L226.26 461.01" stroke="#ECC56B" stroke-linecap="round" stroke-linejoin="round"/>
<path d="M230.067 460.151C238.383 458.436 246.79 457.059 254.885 454.304C273.635 447.88 291.877 440.062 309.459 430.916C315.256 427.912 320.308 423.65 324.246 418.442C330.638 409.996 327.806 400.913 323.596 392.636C319.023 383.985 313.171 376.074 306.236 369.17C297.505 360.165 288.045 351.888 280.158 342.013C270.309 329.708 269.386 315.805 271.063 301.057C272.102 291.961 273.427 282.866 274.545 273.77C277.364 250.966 271.05 229.877 263.942 208.802C258.745 193.417 253.781 178.007 246.621 163.324C237.006 143.548 222.843 128.241 204.899 116.027C192.152 107.347 179.028 99.2262 166.606 90.0397C162.984 87.1946 159.701 83.9422 156.822 80.3464C148.506 70.6661 148.831 59.3876 150.39 47.8622C153.418 25.4481 148.051 11.1156 121.804 5.71019C111.328 3.4297 100.485 3.4297 90.0087 5.71019C80.4194 7.88013 75.9236 13.9354 75.7157 23.8366C75.6731 31.3621 76.9439 38.8372 79.4708 45.9259C81.4459 51.877 83.3688 57.9059 85.032 63.987C87.9036 74.4858 85.4869 83.023 78.3274 90.6633C71.3758 98.0567 63.3326 104.242 55.6273 110.804C36.7605 126.864 28.2626 148.563 22.4674 171.782C17.7767 190.597 13.3719 209.464 6.39425 227.655C-0.583356 245.846 -12.4205 259.581 -26.8305 271.743C-37.4983 280.761 -48.452 289.453 -54.1172 302.928C-57.1967 310.243 -58.4052 317.806 -59.5226 325.628C-61.0169 335.945 -59.1197 345.651 -57.3006 355.514C-53.9872 373.588 -42.4229 385.204 -26.7785 393.091C-1.15811 405.916 25.881 415.685 53.7823 422.197C69.8425 426.017 85.8897 422.808 101.859 419.247C112.254 416.908 122.649 414.582 133.68 416.921C144.075 419.117 152.365 424.393 160.213 430.851C165.775 435.425 171.05 440.349 176.481 445.079C189.059 456.058 203.69 461.1 219.945 461.347" stroke="#ECC56B" stroke-linecap="round" stroke-linejoin="round" stroke-dasharray="3 3"/>
<path d="M221.764 461.451L223.713 461.451" stroke="#ECC56B" stroke-linecap="round" stroke-linejoin="round"/>
<path d="M178.247 39C169.027 40.81 166.367 49.23 168.917 59C172.237 71.72 180.197 77.7 193.277 78.06C195.122 78.1729 196.965 77.8133 198.631 77.0151C200.298 76.2169 201.734 75.0065 202.802 73.4985C203.87 71.9906 204.536 70.235 204.737 68.3979C204.937 66.5607 204.665 64.7028 203.947 63C199.217 50.86 192.607 41.29 178.757 39" stroke="#ECC56B" stroke-linecap="round" stroke-linejoin="round"/>
<path d="M73.3186 304.123C76.929 309.492 80.4325 314.949 84.1966 320.19C87.3894 324.649 91.1839 327.896 97.3976 326.231C103.611 324.566 104.678 319.739 105.919 314.428C108.72 302.566 105.101 292.249 98.6935 282.708C95.3068 277.687 89.6197 274.51 83.939 276.003C81.2183 276.749 78.7786 278.285 76.9234 280.42C75.0681 282.555 73.8792 285.195 73.5043 288.012C72.8017 293.062 73.2362 298.304 73.1557 303.407" stroke="#ECC56B" stroke-linecap="round" stroke-linejoin="round"/>
</svg>
